<svg width="10" height="19" fill="none" xmlns="http://www.w3.org/2000/svg">
    <symbol id="facebook-icon" viewBox="0 0 10 19">
        <g>
        <path id="facebook-icon_2" d="M9.34469 10.5025L9.86325 7.12348H6.62096V4.93071C6.62096 4.00627 7.07388 3.10517 8.526 3.10517H10V0.228284C10 0.228284 8.66239 0 7.38349 0C4.71337 0 2.96806 1.61841 2.96806 4.54817V7.12348H0V10.5025H2.96806V18.6711H6.62096V10.5025H9.34469Z"/>
        </g>
    </symbol>
    <symbol id="dribbble-icon" viewBox="0 0 20 20" >
        <g>
        <path id="dribbble-icon_2" d="M9.6875 0C4.34578 0 0 4.34578 0 9.6875C0 15.0292 4.34578 19.375 9.6875 19.375C15.0292 19.375 19.375 15.0292 19.375 9.6875C19.375 4.34578 15.0292 0 9.6875 0ZM16.0926 4.46742C17.245 5.87547 17.9429 7.66887 17.9611 9.62191C17.6883 9.56422 14.9526 9.00934 12.1993 9.35559C11.9746 8.80711 11.7626 8.32461 11.4721 7.73004C14.5315 6.48094 15.9181 4.7034 16.0926 4.46742ZM15.1727 3.51055C15.0239 3.72254 13.7783 5.39672 10.8359 6.49957C9.48 4.00832 7.97715 1.96176 7.74844 1.65551C10.3725 1.02297 13.1377 1.70512 15.1727 3.51055ZM6.16957 2.21172C6.38773 2.5109 7.86637 4.56 9.23742 6.99723C5.36684 8.02508 1.95773 8.01027 1.58766 8.00539C2.12422 5.4377 3.85461 3.30363 6.16957 2.21172ZM1.41289 9.70012C1.41289 9.61551 1.41457 9.53129 1.41711 9.44727C1.77914 9.45469 5.78898 9.50637 9.92125 8.26969C10.1581 8.73328 10.3844 9.20387 10.5921 9.67395C7.59996 10.5167 4.88141 12.9367 3.54012 15.2328C2.21852 13.7658 1.41289 11.8254 1.41289 9.70012ZM4.60848 16.228C5.47281 14.4611 7.81855 12.1802 11.1545 11.0422C12.3162 14.0611 12.7967 16.5911 12.9197 17.3171C10.2591 18.4504 7.05977 18.1395 4.60848 16.228ZM14.3108 16.5596C14.226 16.0562 13.7856 13.6339 12.7033 10.6598C15.2963 10.2448 17.5744 10.9242 17.8575 11.0136C17.4887 13.3159 16.1671 15.3043 14.3108 16.5596Z"/>
        </g>
    </symbol>
    <symbol id="github-icon" viewBox="0 0 20 20">
        <g>
        <path id="github-icon_2" d="M6.68952 15.7016C6.68952 15.7823 6.59677 15.8468 6.47984 15.8468C6.34677 15.8589 6.25403 15.7944 6.25403 15.7016C6.25403 15.621 6.34677 15.5565 6.46371 15.5565C6.58468 15.5444 6.68952 15.6089 6.68952 15.7016ZM5.43548 15.5202C5.40726 15.6008 5.4879 15.6935 5.60887 15.7177C5.71371 15.7581 5.83468 15.7177 5.85887 15.6371C5.88306 15.5565 5.80645 15.4637 5.68548 15.4274C5.58065 15.3992 5.46371 15.4395 5.43548 15.5202ZM7.21774 15.4516C7.10081 15.4798 7.02016 15.5565 7.03226 15.6492C7.04435 15.7298 7.14919 15.7823 7.27016 15.754C7.3871 15.7258 7.46774 15.6492 7.45564 15.5685C7.44355 15.4919 7.33468 15.4395 7.21774 15.4516ZM9.87097 0C4.27823 0 0 4.24597 0 9.83871C0 14.3105 2.81452 18.1371 6.83468 19.4839C7.35081 19.5766 7.53226 19.2581 7.53226 18.996C7.53226 18.746 7.52016 17.3669 7.52016 16.5202C7.52016 16.5202 4.69758 17.125 4.10484 15.3185C4.10484 15.3185 3.64516 14.1452 2.98387 13.8427C2.98387 13.8427 2.06048 13.2097 3.04839 13.2218C3.04839 13.2218 4.05242 13.3024 4.60484 14.2621C5.4879 15.8185 6.96774 15.371 7.54435 15.1048C7.6371 14.4597 7.89919 14.0121 8.18952 13.746C5.93548 13.496 3.66129 13.1694 3.66129 9.29032C3.66129 8.18145 3.96774 7.625 4.6129 6.91532C4.50806 6.65323 4.16532 5.57258 4.71774 4.17742C5.56048 3.91532 7.5 5.26613 7.5 5.26613C8.30645 5.04032 9.17339 4.92339 10.0323 4.92339C10.8911 4.92339 11.7581 5.04032 12.5645 5.26613C12.5645 5.26613 14.504 3.91129 15.3468 4.17742C15.8992 5.57661 15.5565 6.65323 15.4516 6.91532C16.0968 7.62903 16.4919 8.18548 16.4919 9.29032C16.4919 13.1815 14.1169 13.4919 11.8629 13.746C12.2339 14.0645 12.5484 14.6694 12.5484 15.6169C12.5484 16.9758 12.5363 18.6573 12.5363 18.9879C12.5363 19.25 12.7218 19.5685 13.2339 19.4758C17.2661 18.1371 20 14.3105 20 9.83871C20 4.24597 15.4637 0 9.87097 0ZM3.91935 13.9073C3.86694 13.9476 3.87903 14.0403 3.94758 14.1169C4.0121 14.1815 4.10484 14.2097 4.15726 14.1573C4.20968 14.1169 4.19758 14.0242 4.12903 13.9476C4.06452 13.8831 3.97177 13.8548 3.91935 13.9073ZM3.48387 13.5806C3.45565 13.6331 3.49597 13.6976 3.57661 13.7379C3.64113 13.7782 3.72177 13.7661 3.75 13.7097C3.77823 13.6573 3.7379 13.5927 3.65726 13.5524C3.57661 13.5282 3.5121 13.5403 3.48387 13.5806ZM4.79032 15.0161C4.72581 15.0685 4.75 15.1895 4.84274 15.2661C4.93548 15.3589 5.05242 15.371 5.10484 15.3065C5.15726 15.254 5.13306 15.1331 5.05242 15.0565C4.96371 14.9637 4.84274 14.9516 4.79032 15.0161ZM4.33065 14.4234C4.26613 14.4637 4.26613 14.5685 4.33065 14.6613C4.39516 14.754 4.50403 14.7944 4.55645 14.754C4.62097 14.7016 4.62097 14.5968 4.55645 14.504C4.5 14.4113 4.39516 14.371 4.33065 14.4234Z"/>
        </g>
    </symbol>
    <symbol id="instagram-icon" viewBox="0 0 21 20">
        <g>
        <path id="instagram-icon_2" d="M10.0078 4.87388C7.16852 4.87388 4.87834 7.16406 4.87834 10.0033C4.87834 12.8426 7.16852 15.1328 10.0078 15.1328C12.8471 15.1328 15.1373 12.8426 15.1373 10.0033C15.1373 7.16406 12.8471 4.87388 10.0078 4.87388ZM10.0078 13.3382C8.17298 13.3382 6.67298 11.8426 6.67298 10.0033C6.67298 8.16406 8.16851 6.66853 10.0078 6.66853C11.8471 6.66853 13.3426 8.16406 13.3426 10.0033C13.3426 11.8426 11.8426 13.3382 10.0078 13.3382ZM16.5435 4.66406C16.5435 5.32924 16.0078 5.86049 15.3471 5.86049C14.6819 5.86049 14.1506 5.32478 14.1506 4.66406C14.1506 4.00335 14.6864 3.46763 15.3471 3.46763C16.0078 3.46763 16.5435 4.00335 16.5435 4.66406ZM19.9408 5.87835C19.8649 4.27567 19.4989 2.85603 18.3247 1.68638C17.1551 0.516741 15.7355 0.15067 14.1328 0.0703125C12.481 -0.0234375 7.53012 -0.0234375 5.87834 0.0703125C4.28013 0.146205 2.86049 0.512277 1.68638 1.68192C0.512276 2.85156 0.150669 4.27121 0.0703124 5.87388C-0.0234375 7.52567 -0.0234375 12.4766 0.0703124 14.1283C0.146205 15.731 0.512276 17.1507 1.68638 18.3203C2.86049 19.49 4.27566 19.856 5.87834 19.9364C7.53012 20.0301 12.481 20.0301 14.1328 19.9364C15.7355 19.8605 17.1551 19.4944 18.3247 18.3203C19.4944 17.1507 19.8605 15.731 19.9408 14.1283C20.0346 12.4766 20.0346 7.53013 19.9408 5.87835ZM17.8069 15.9007C17.4587 16.7757 16.7846 17.4498 15.9051 17.8025C14.5881 18.3248 11.4632 18.2042 10.0078 18.2042C8.55244 18.2042 5.42298 18.3203 4.11048 17.8025C3.23549 17.4542 2.56138 16.7801 2.2087 15.9007C1.68638 14.5837 1.80692 11.4587 1.80692 10.0033C1.80692 8.54799 1.69085 5.41853 2.2087 4.10603C2.55692 3.23103 3.23102 2.55692 4.11048 2.20424C5.42745 1.68192 8.55244 1.80246 10.0078 1.80246C11.4632 1.80246 14.5926 1.68638 15.9051 2.20424C16.7801 2.55246 17.4542 3.22656 17.8069 4.10603C18.3292 5.42299 18.2087 8.54799 18.2087 10.0033C18.2087 11.4587 18.3292 14.5882 17.8069 15.9007Z"/>
        </g>
    </symbol>
    <symbol id="twitter-icon" viewBox="0 0 20 17">
        <g>
        <path id="twitter-icon_2" d="M17.9441 4.0482C17.9568 4.22586 17.9568 4.40355 17.9568 4.58121C17.9568 9.99996 13.8325 16.2436 6.29441 16.2436C3.97207 16.2436 1.81473 15.571 0 14.4036C0.329961 14.4416 0.647187 14.4543 0.989844 14.4543C2.90605 14.4543 4.67004 13.8071 6.07867 12.703C4.27664 12.665 2.76648 11.4848 2.24617 9.86039C2.5 9.89844 2.75379 9.92383 3.02031 9.92383C3.38832 9.92383 3.75637 9.87305 4.09898 9.78426C2.22082 9.40351 0.812148 7.75379 0.812148 5.76141V5.71066C1.35781 6.01523 1.99238 6.20559 2.66492 6.23094C1.56086 5.49488 0.837539 4.23855 0.837539 2.81723C0.837539 2.05582 1.04055 1.35785 1.3959 0.748711C3.41367 3.23602 6.44668 4.86035 9.84766 5.03805C9.78422 4.73348 9.74613 4.41625 9.74613 4.09898C9.74613 1.84008 11.5736 0 13.8451 0C15.0253 0 16.0913 0.494922 16.84 1.29441C17.7664 1.11676 18.6547 0.774102 19.4416 0.30457C19.137 1.25637 18.4898 2.05586 17.6395 2.56344C18.4644 2.47465 19.2639 2.24617 19.9999 1.92895C19.4416 2.74109 18.7436 3.46441 17.9441 4.0482Z"/>
        </g>
    </symbol>
    <symbol id="logo" viewBox="0 0 512 512" enable-background="new 0 0 512 512" xml:space="preserve">
        <g>  
                <path fill="#3DB270" opacity="1.000000" stroke="none" 
            d="
                M39.814720,455.161255 
                    C23.641836,434.967194 13.457310,412.414551 10.289540,387.108063 
                    C5.474662,348.643280 14.778398,313.709229 39.273476,283.490906 
                    C47.168507,273.751190 56.890488,265.492432 65.971870,256.359924 
                    C27.481873,227.346146 7.383124,187.870773 9.312181,138.450226 
                    C10.728190,102.173470 25.222942,70.951332 51.767406,46.119358 
                    C81.929787,17.902874 117.997299,5.413671 159.275131,9.797421 
                    C200.519424,14.177613 232.642334,34.520176 257.197815,67.906471 
                    C284.749756,31.013741 320.748413,10.101490 366.982025,9.055079 
                    C404.742523,8.200440 437.415436,21.360210 464.318115,47.806667 
                    C494.585388,77.560661 508.130798,114.174500 504.813416,156.300919 
                    C501.509094,198.261536 481.725952,231.613632 447.523224,256.906738 
                    C489.001923,288.368561 508.738007,329.838989 504.702759,381.366272 
                    C501.822235,418.148560 485.344727,448.861053 457.233765,472.812866 
                    C397.542847,523.672302 305.953705,514.386658 257.269135,446.006836 
                    C255.174026,448.671997 253.195496,451.283997 251.119019,453.815643 
                    C227.592361,482.499634 197.639450,499.991364 160.636505,503.987518 
                    C111.998848,509.240112 71.937042,492.247375 39.814720,455.161255 
                M262.255432,141.996124 
                    C249.417542,145.035446 238.646088,136.312546 235.921021,123.994553 
                    C225.483856,76.815849 179.151535,45.118160 131.555679,52.177788 
                    C81.276756,59.635384 45.476307,106.952187 52.156830,157.117783 
                    C57.324913,195.926117 84.596497,226.370651 122.879814,236.069138 
                    C133.489304,238.756882 140.205505,246.917389 140.143295,257.045105 
                    C140.080292,267.299255 133.504257,275.227386 122.796303,277.958771 
                    C74.405701,290.302277 45.285381,334.642548 52.926167,384.347076 
                    C61.240723,438.434601 116.811378,474.530426 169.247406,459.299469 
                    C204.735931,448.991211 227.095886,425.386017 236.123901,389.429169 
                    C238.890198,378.411469 247.449127,370.942780 257.467560,371.142456 
                    C267.687836,371.346222 275.443939,378.209961 278.150421,389.445801 
                    C289.704132,437.410370 333.256744,467.714478 382.282928,461.901733 
                    C425.271973,456.804749 461.013611,417.826935 462.934631,373.947571 
                    C464.936371,328.224365 435.858002,289.047638 391.692078,277.963867 
                    C381.133759,275.314209 374.206635,267.095276 374.090698,257.080170 
                    C373.976562,247.216248 380.867676,238.630081 391.512634,236.103821 
                    C438.283539,225.004166 467.978149,179.910629 462.221771,133.305450 
                    C455.903320,82.149338 407.073700,44.353405 356.098663,52.191792 
                    C317.758148,58.087376 287.059296,86.424126 278.292999,124.406975 
                    C276.263916,133.198502 271.453949,138.947540 262.255432,141.996124 
                z"/>
        </g>
    </symbol>
</svg>
