<?xml version="1.0" encoding="UTF-8"?>
<svg xmlns="http://www.w3.org/2000/svg" >
    <symbol id="for_s" viewBox="0 0 512.000000 512.000000"  preserveAspectRatio="xMidYMid meet">
        <g transform="translate(0.000000,512.000000) scale(0.100000,-0.100000)"
           fill="black" stroke="none">
            <path d="M823 5089 c-49 -24 -108 -86 -131 -138 -16 -33 -17 -222 -17 -2386 0
-1982 2 -2356 14 -2389 20 -56 93 -131 149 -153 45 -17 134 -18 1727 -18
l1680 0 47 23 c58 29 120 97 136 150 16 52 17 4708 2 4763 -14 49 -80 122
-133 148 l-43 21 -1695 0 -1694 0 -42 -21z m3423 -125 c15 -11 37 -33 48 -48
l21 -27 0 -2329 0 -2329 -21 -27 c-11 -15 -33 -37 -48 -48 l-27 -21 -1657 0
c-1606 0 -1658 1 -1688 19 -17 10 -40 33 -50 50 -18 30 -19 98 -22 2311 -2
1254 0 2304 3 2334 8 64 51 118 105 131 19 4 772 7 1672 7 1636 -2 1637 -2
1664 -23z"/>
            <path d="M1367 4483 c-41 -65 -93 -148 -115 -184 -29 -46 -42 -77 -42 -103 l0
-36 110 0 110 0 0 -25 c0 -20 -5 -25 -25 -25 -22 0 -25 -4 -25 -40 l0 -40 80
0 80 0 0 40 c0 29 -4 40 -15 40 -9 0 -15 9 -15 25 0 22 4 25 35 25 34 0 35 1
35 40 0 39 -1 40 -35 40 l-35 0 0 180 0 180 -34 0 c-33 0 -38 -5 -109 -117z"/>
            <path d="M1369 3847 c-100 -117 -159 -230 -159 -303 0 -85 59 -140 118 -110
16 8 32 23 36 32 14 36 14 5 0 -66 -20 -106 -23 -100 51 -100 36 0 65 1 65 3
0 1 -7 34 -15 72 -21 101 -20 112 8 81 32 -36 67 -42 100 -16 54 43 56 132 5
234 -34 68 -150 217 -167 216 -4 -1 -22 -20 -42 -43z"/>
            <path d="M2564 3181 c-252 -279 -403 -553 -404 -733 0 -100 57 -220 120 -253
82 -42 173 -3 241 105 28 44 29 44 29 16 0 -47 -29 -225 -53 -326 l-23 -95
148 0 c92 0 148 4 148 10 -1 6 -7 37 -15 70 -21 83 -55 293 -55 334 l0 35 29
-45 c92 -143 229 -162 305 -41 101 160 60 365 -127 642 -88 131 -266 342 -285
339 -4 -1 -30 -27 -58 -58z"/>
            <path d="M3750 1803 c0 -5 7 -43 15 -86 8 -43 15 -80 15 -82 0 -2 -13 10 -29
26 -47 46 -101 35 -127 -26 -19 -46 -18 -95 5 -154 21 -57 106 -182 155 -230
l34 -33 61 74 c65 78 126 187 137 245 4 19 1 53 -5 75 -24 80 -80 101 -132 49
-34 -34 -33 -36 -14 66 8 43 15 79 15 81 0 1 -29 2 -65 2 -36 0 -65 -3 -65 -7z"/>
            <path d="M3680 1050 c0 -33 3 -40 20 -40 15 0 20 -7 20 -25 0 -22 -4 -25 -35
-25 -34 0 -35 -1 -35 -40 0 -39 1 -40 35 -40 l35 0 0 -180 0 -180 34 0 c33 0
36 5 150 185 91 145 116 192 116 220 l0 35 -110 0 -110 0 0 25 c0 18 5 25 20
25 17 0 20 7 20 40 l0 40 -80 0 -80 0 0 -40z"/>
        </g>
    </symbol>
    <symbol id="6s" viewBox="0 0 512.000000 512.000000"  preserveAspectRatio="xMidYMid meet">
        <g transform="translate(0.000000,512.000000) scale(0.100000,-0.100000)"
           fill="#000000" stroke="none">
            <path d="M823 5089 c-49 -24 -108 -86 -131 -138 -16 -33 -17 -222 -17 -2386 0
-1982 2 -2356 14 -2389 20 -56 93 -131 149 -153 45 -17 134 -18 1727 -18
l1680 0 47 23 c58 29 120 97 136 150 16 52 17 4708 2 4763 -14 49 -80 122
-133 148 l-43 21 -1695 0 -1694 0 -42 -21z m3423 -125 c15 -11 37 -33 48 -48
l21 -27 0 -2329 0 -2329 -21 -27 c-11 -15 -33 -37 -48 -48 l-27 -21 -1657 0
c-1606 0 -1658 1 -1688 19 -17 10 -40 33 -50 50 -18 30 -19 98 -22 2311 -2
1254 0 2304 3 2334 8 64 51 118 105 131 19 4 772 7 1672 7 1636 -2 1637 -2
1664 -23z"/>
            <path d="M1344 4589 c-84 -24 -127 -120 -127 -284 0 -110 17 -176 60 -234 67
-87 201 -77 269 21 27 38 29 48 29 134 0 87 -2 95 -30 136 -40 57 -86 80 -150
75 -27 -2 -58 -7 -69 -12 -16 -7 -17 -5 -11 16 23 74 104 94 156 38 l28 -30
31 17 c39 24 38 39 -5 80 -51 48 -113 63 -181 43z m96 -244 c39 -20 60 -63 60
-124 0 -39 -6 -56 -27 -81 -52 -62 -108 -58 -143 10 -42 82 -33 142 26 189 32
25 45 26 84 6z"/>
            <path d="M1383 3848 c-53 -57 -111 -142 -139 -202 -49 -107 -18 -226 58 -226
17 0 39 10 53 25 22 21 25 22 25 6 0 -19 -17 -116 -25 -141 -4 -12 8 -15 65
-15 49 0 69 4 66 11 -3 7 -10 41 -16 75 -6 35 -13 72 -15 82 -2 12 6 8 26 -14
39 -42 84 -38 116 10 42 62 24 162 -47 267 -41 61 -119 154 -129 154 -4 0 -21
-15 -38 -32z"/>
            <path d="M2555 3166 c-123 -136 -242 -305 -306 -431 -99 -197 -110 -316 -44
-452 36 -72 74 -98 147 -98 48 0 62 5 95 31 21 17 53 52 71 78 31 46 32 47 32
20 0 -45 -28 -219 -51 -322 -11 -51 -19 -95 -17 -97 1 -1 35 0 73 4 39 3 102
3 140 0 39 -4 72 -5 74 -3 2 2 -8 57 -22 121 -28 128 -51 282 -45 309 2 12 12
2 34 -33 48 -77 95 -108 163 -108 73 0 110 26 150 105 53 107 51 214 -6 360
-55 141 -205 363 -350 519 l-69 74 -69 -77z"/>
            <path d="M3740 1810 c1 -3 7 -32 15 -65 8 -33 15 -70 15 -82 0 -22 0 -22 -25
2 -24 24 -57 31 -90 19 -45 -18 -60 -136 -25 -211 34 -76 159 -243 181 -243
15 0 128 149 162 214 25 50 31 73 32 128 0 57 -3 70 -24 92 -35 37 -81 35
-114 -4 l-26 -30 6 37 c3 21 11 63 17 93 l12 55 -68 0 c-37 0 -68 -2 -68 -5z"/>
            <path d="M3755 1094 c-78 -43 -121 -123 -112 -214 8 -93 67 -180 133 -196 27
-7 101 -1 126 10 16 7 17 5 7 -23 -23 -66 -95 -81 -152 -32 l-33 30 -32 -21
c-36 -23 -33 -38 18 -81 97 -82 231 -48 277 71 14 37 18 75 18 177 0 122 -2
134 -28 187 -16 32 -42 67 -59 80 -41 28 -122 35 -163 12z m114 -90 c44 -37
67 -119 48 -167 -18 -41 -61 -77 -94 -77 -33 0 -78 48 -94 99 -17 58 10 128
61 153 44 23 43 23 79 -8z"/>
        </g>
    </symbol>
    <symbol id="7s" viewBox="0 0 512.000000 512.000000"  preserveAspectRatio="xMidYMid meet">
        <g transform="translate(0.000000,512.000000) scale(0.100000,-0.100000)"
           fill="#000000" stroke="none">
            <path d="M823 5089 c-49 -24 -108 -86 -131 -138 -16 -33 -17 -222 -17 -2386 0
-1982 2 -2356 14 -2389 20 -56 93 -131 149 -153 45 -17 134 -18 1727 -18
l1680 0 47 23 c58 29 120 97 136 150 16 52 17 4708 2 4763 -14 49 -80 122
-133 148 l-43 21 -1695 0 -1694 0 -42 -21z m3423 -125 c15 -11 37 -33 48 -48
l21 -27 0 -2329 0 -2329 -21 -27 c-11 -15 -33 -37 -48 -48 l-27 -21 -1657 0
c-1606 0 -1658 1 -1688 19 -17 10 -40 33 -50 50 -18 30 -19 98 -22 2311 -2
1254 0 2304 3 2334 8 64 51 118 105 131 19 4 772 7 1672 7 1636 -2 1637 -2
1664 -23z"/>
            <path d="M1230 4520 l0 -80 45 0 c45 0 45 0 45 35 l0 35 81 0 c61 0 80 -3 76
-12 -3 -7 -24 -54 -46 -104 -44 -102 -87 -241 -97 -316 l-7 -49 43 3 42 3 28
111 c30 118 80 244 129 325 36 57 37 62 14 100 l-17 29 -168 0 -168 0 0 -80z"/>
            <path d="M1357 3814 c-144 -179 -179 -303 -105 -381 28 -30 59 -29 97 3 36 30
36 27 16 -71 -8 -38 -15 -71 -15 -72 0 -2 29 -3 65 -3 36 0 65 4 65 10 0 5 -4
31 -9 57 -5 26 -12 62 -15 79 l-5 31 29 -28 c46 -46 100 -35 126 26 8 19 14
48 14 64 0 73 -69 204 -162 305 l-44 49 -57 -69z"/>
            <path d="M2556 3159 c-217 -234 -377 -513 -393 -685 -11 -118 41 -245 117
-285 86 -46 179 -4 244 111 24 42 26 43 26 17 0 -49 -32 -248 -55 -345 l-23
-94 35 7 c44 8 204 8 237 -1 31 -7 31 -3 11 75 -19 74 -55 297 -55 341 l0 35
26 -40 c56 -85 113 -125 176 -125 36 0 91 29 119 63 25 30 57 115 64 174 8 60
-14 172 -52 256 -65 148 -206 354 -340 497 l-69 73 -68 -74z"/>
            <path d="M3740 1805 c0 0 7 -32 15 -70 21 -101 20 -109 -10 -80 -40 41 -96 32
-121 -18 -37 -70 -8 -181 78 -297 48 -65 99 -120 110 -120 17 0 133 159 166
228 30 62 34 80 30 127 -6 68 -35 105 -84 105 -24 0 -39 -8 -57 -30 l-26 -30
6 37 c3 21 11 63 17 94 l12 55 -68 0 c-37 -1 -68 -1 -68 -1z"/>
            <path d="M3808 988 c-31 -126 -76 -241 -129 -331 l-40 -68 18 -32 19 -32 167
-3 167 -2 0 80 0 80 -40 0 c-39 0 -40 -1 -40 -35 l0 -35 -84 0 -85 0 38 83
c21 45 48 111 59 147 20 60 62 225 62 243 0 4 -19 7 -43 7 l-43 0 -26 -102z"/>
        </g>
    </symbol>
    <symbol id="8s" viewBox="0 0 512.000000 512.000000"  preserveAspectRatio="xMidYMid meet">
        <g transform="translate(0.000000,512.000000) scale(0.100000,-0.100000)"
           fill="#000000" stroke="none">
            <path d="M823 5089 c-49 -24 -108 -86 -131 -138 -16 -33 -17 -222 -17 -2386 0
-1982 2 -2356 14 -2389 20 -56 93 -131 149 -153 45 -17 134 -18 1727 -18
l1680 0 47 23 c58 29 120 97 136 150 16 52 17 4708 2 4763 -14 49 -80 122
-133 148 l-43 21 -1695 0 -1694 0 -42 -21z m3423 -125 c15 -11 37 -33 48 -48
l21 -27 0 -2329 0 -2329 -21 -27 c-11 -15 -33 -37 -48 -48 l-27 -21 -1657 0
c-1606 0 -1658 1 -1688 19 -17 10 -40 33 -50 50 -18 30 -19 98 -22 2311 -2
1254 0 2304 3 2334 8 64 51 118 105 131 19 4 772 7 1672 7 1636 -2 1637 -2
1664 -23z"/>
            <path d="M1335 4588 c-92 -32 -134 -145 -84 -227 20 -33 20 -34 1 -55 -32 -34
-42 -62 -42 -111 0 -53 16 -88 57 -127 36 -34 73 -48 130 -48 61 0 127 33 158
78 42 61 31 179 -19 221 -13 11 -13 16 5 44 26 43 25 119 -1 163 -38 60 -130
88 -205 62z m122 -100 c60 -56 -17 -141 -98 -108 -54 23 -65 76 -23 109 36 28
91 27 121 -1z m20 -240 c45 -43 23 -116 -42 -138 -45 -15 -87 -5 -119 27 -32
31 -33 71 -5 107 38 49 116 51 166 4z"/>
            <path d="M1367 3838 c-107 -127 -166 -252 -152 -325 8 -42 54 -93 85 -93 12 0
35 13 51 29 34 34 33 36 14 -66 -8 -43 -15 -79 -15 -80 0 -2 29 -3 65 -3 36 0
65 3 65 8 0 4 -7 42 -15 85 -8 43 -15 80 -15 82 0 2 13 -10 29 -26 37 -37 74
-38 106 -3 46 50 45 125 -5 223 -30 61 -103 162 -143 199 l-24 23 -46 -53z"/>
            <path d="M2556 3169 c-138 -149 -284 -362 -340 -497 -59 -141 -69 -229 -36
-333 35 -113 102 -168 192 -156 50 7 99 45 143 110 33 49 35 50 35 23 0 -48
-29 -226 -53 -326 l-23 -95 148 0 c81 0 148 2 148 5 0 3 -11 55 -25 115 -13
61 -29 151 -35 200 -6 50 -13 104 -15 120 -5 27 -3 26 21 -15 52 -91 115 -140
181 -140 89 0 161 82 184 209 10 56 9 80 -4 144 -35 171 -191 427 -393 646
l-59 64 -69 -74z"/>
            <path d="M3744 1804 c3 -7 10 -41 16 -75 6 -35 13 -72 15 -82 2 -12 -6 -8 -26
14 -39 42 -84 38 -116 -10 -55 -82 -3 -230 132 -379 l43 -47 32 30 c45 42 115
142 145 206 35 76 35 156 -1 198 -32 38 -71 41 -108 6 l-26 -24 0 22 c0 12 7
49 15 82 8 33 14 62 15 65 0 3 -32 5 -70 5 -49 0 -69 -4 -66 -11z"/>
            <path d="M3740 1078 c-102 -52 -129 -180 -56 -265 l24 -27 -21 -28 c-31 -41
-29 -123 2 -167 28 -39 91 -70 141 -71 44 0 118 36 143 71 30 42 33 100 7 154
l-22 46 20 22 c56 60 56 164 -1 226 -56 61 -160 78 -237 39z m147 -78 c17 -10
37 -28 43 -40 28 -53 -25 -120 -95 -120 -109 0 -151 106 -63 160 41 25 74 25
115 0z m4 -279 c35 -36 36 -54 4 -86 -17 -18 -35 -25 -63 -25 -79 0 -113 69
-58 117 38 32 81 30 117 -6z"/>
        </g>
    </symbol>
    <symbol id="9s" viewBox="0 0 512.000000 512.000000"
            preserveAspectRatio="xMidYMid meet">
        <g transform="translate(0.000000,512.000000) scale(0.100000,-0.100000)"
           fill="#000000" stroke="none">
            <path d="M823 5089 c-49 -24 -108 -86 -131 -138 -16 -33 -17 -222 -17 -2386 0
-1982 2 -2356 14 -2389 20 -56 93 -131 149 -153 45 -17 134 -18 1727 -18
l1680 0 47 23 c58 29 120 97 136 150 16 52 17 4708 2 4763 -14 49 -80 122
-133 148 l-43 21 -1695 0 -1694 0 -42 -21z m3423 -125 c15 -11 37 -33 48 -48
l21 -27 0 -2329 0 -2329 -21 -27 c-11 -15 -33 -37 -48 -48 l-27 -21 -1657 0
c-1606 0 -1658 1 -1688 19 -17 10 -40 33 -50 50 -18 30 -19 98 -22 2311 -2
1254 0 2304 3 2334 8 64 51 118 105 131 19 4 772 7 1672 7 1636 -2 1637 -2
1664 -23z"/>
            <path d="M1349 4590 c-96 -29 -157 -146 -129 -251 16 -59 55 -114 95 -133 37
-18 127 -21 156 -6 15 9 19 7 19 -5 0 -32 -32 -77 -66 -91 -30 -13 -38 -13
-64 1 -16 8 -35 24 -43 36 -14 19 -17 20 -45 5 -45 -23 -46 -31 -10 -72 73
-83 192 -86 260 -6 44 52 63 124 62 237 0 151 -38 240 -118 276 -43 20 -75 22
-117 9z m98 -95 c12 -9 30 -40 39 -69 15 -46 15 -59 4 -85 -38 -92 -137 -94
-181 -4 -19 40 -20 49 -10 85 24 78 92 112 148 73z"/>
            <path d="M1373 3838 c-138 -151 -191 -311 -127 -387 33 -39 71 -41 108 -5 l26
27 0 -24 c0 -13 -7 -51 -15 -84 -8 -33 -14 -62 -15 -65 0 -3 32 -5 70 -5 44 0
69 4 66 10 -2 6 -9 37 -15 70 -7 33 -14 70 -16 82 -5 19 -2 19 24 -8 87 -86
175 33 126 171 -24 68 -160 260 -185 260 -4 0 -25 -19 -47 -42z"/>
            <path d="M2578 3192 c-122 -127 -267 -328 -336 -467 -61 -123 -76 -179 -77
-275 0 -77 3 -92 33 -152 43 -87 78 -113 154 -113 48 0 62 5 95 31 21 17 53
55 71 84 l32 54 0 -34 c0 -50 -26 -210 -51 -323 -12 -53 -20 -99 -18 -101 2
-2 36 -1 74 3 39 3 102 3 140 0 39 -4 72 -5 74 -3 2 2 -4 32 -13 67 -20 83
-56 302 -56 346 l0 33 33 -48 c48 -71 97 -106 154 -111 65 -6 109 20 150 86
47 78 60 166 39 267 -19 95 -89 244 -171 364 -62 91 -204 267 -252 312 l-29
28 -46 -48z"/>
            <path d="M3740 1810 c1 -3 7 -32 15 -65 8 -33 15 -70 15 -82 0 -22 0 -22 -25
2 -39 40 -96 32 -120 -16 -27 -51 -19 -129 19 -204 46 -87 145 -215 168 -215
17 0 133 158 165 225 41 86 44 146 10 196 -31 47 -76 51 -116 11 l-29 -29 5
36 c3 20 11 61 17 91 l12 55 -68 0 c-37 0 -68 -2 -68 -5z"/>
            <path d="M3753 1090 c-79 -40 -119 -150 -111 -305 8 -150 65 -244 157 -260
129 -22 242 113 210 253 -12 54 -48 106 -93 133 -34 21 -117 26 -160 9 l-26
-10 15 37 c20 46 33 63 62 74 30 11 72 -5 100 -38 l21 -26 36 23 37 22 -24 31
c-39 51 -72 70 -129 74 -40 3 -63 -1 -95 -17z m125 -256 c50 -35 68 -126 35
-174 -26 -38 -45 -49 -84 -50 -41 0 -60 17 -84 73 -25 59 -20 94 19 133 38 38
77 44 114 18z"/>
        </g>
    </symbol>
    <symbol id="10h" viewBox="0 0 512.000000 512.000000"
            preserveAspectRatio="xMidYMid meet">
        <g transform="translate(0.000000,512.000000) scale(0.100000,-0.100000)"
           fill="red" stroke="none">
            <path d="M893 5100 c-84 -17 -150 -70 -187 -150 l-21 -45 -3 -2330 c-3 -2630
-10 -2398 77 -2485 87 -87 -61 -80 1801 -80 1821 0 1706 -4 1787 65 23 19 52
56 65 83 l23 47 0 2355 0 2355 -24 47 c-26 53 -77 102 -130 127 -33 15 -187
16 -1691 17 -910 1 -1674 -2 -1697 -6z m3364 -130 c68 -41 63 165 63 -2405 0
-2580 6 -2371 -65 -2415 -32 -20 -45 -20 -1694 -20 -1836 0 -1700 -5 -1741 63
-20 31 -20 69 -20 2365 0 2578 -5 2371 63 2412 31 20 63 20 1697 20 1634 0
1666 0 1697 -20z"/>
            <path d="M1652 4582 c-35 -11 -88 -57 -105 -95 -14 -28 -17 -66 -17 -184 0
-147 0 -150 29 -194 67 -106 219 -107 291 -2 24 34 25 46 28 189 3 135 1 156
-16 191 -24 47 -47 68 -95 88 -38 16 -75 18 -115 7z m106 -82 c18 -11 37 -32
42 -46 6 -14 10 -83 10 -152 0 -104 -3 -132 -17 -152 -27 -40 -45 -49 -91 -50
-35 0 -49 6 -72 28 -35 35 -43 84 -38 215 2 78 7 101 24 124 41 54 88 66 142
33z"/>
            <path d="M1130 4545 l0 -35 55 0 55 0 0 -200 0 -200 -55 0 -55 0 0 -35 0 -35
145 0 145 0 0 35 0 35 -55 0 -55 0 0 235 0 235 -90 0 -90 0 0 -35z"/>
            <path d="M1335 3881 c-73 -32 -94 -125 -52 -230 33 -82 78 -155 156 -254 l64
-81 44 49 c66 75 158 216 182 279 24 66 27 145 6 185 -19 38 -77 65 -123 58
-41 -7 -68 -29 -91 -76 l-18 -33 -12 30 c-7 16 -23 40 -36 52 -25 24 -88 35
-120 21z"/>
            <path d="M2155 3217 c-161 -62 -222 -229 -165 -453 50 -198 251 -521 497 -799
60 -69 50 -73 157 55 221 261 370 501 437 700 76 228 23 423 -133 490 -74 32
-194 26 -260 -13 -56 -33 -103 -94 -125 -164 -16 -52 -33 -70 -33 -35 0 29
-56 135 -86 164 -49 46 -111 68 -189 67 -38 0 -84 -6 -100 -12z"/>
            <path d="M3699 1777 c-196 -233 -257 -415 -167 -499 59 -55 161 -31 193 46
l13 30 15 -36 c29 -69 128 -91 186 -42 81 68 55 203 -77 389 -27 39 -67 89
-88 112 l-39 43 -36 -43z"/>
            <path d="M3467 1086 c-45 -17 -82 -49 -105 -91 -21 -40 -29 -247 -13 -320 38
-169 261 -196 332 -41 15 34 19 66 19 180 0 122 -3 145 -21 184 -38 77 -132
117 -212 88z m129 -100 l34 -34 0 -131 c0 -152 -10 -184 -67 -207 -43 -19 -93
-5 -123 33 -18 23 -20 40 -20 168 l0 143 29 31 c24 25 37 31 71 31 34 0 48 -6
76 -34z"/>
            <path d="M3800 1050 l0 -40 60 0 60 0 0 -235 0 -235 90 0 90 0 0 35 0 35 -55
0 -55 0 0 200 0 200 55 0 55 0 0 40 0 40 -150 0 -150 0 0 -40z"/>
        </g>
    </symbol>
    <symbol id="jd" viewBox="0 0 512.000000 512.000000"
            preserveAspectRatio="xMidYMid meet">
        <g transform="translate(0.000000,512.000000) scale(0.100000,-0.100000)"
           fill="red" stroke="none">
            <path d="M893 5100 c-84 -17 -150 -70 -187 -150 l-21 -45 -3 -2330 c-3 -2630
-10 -2398 77 -2485 87 -87 -61 -80 1801 -80 1821 0 1706 -4 1787 65 23 19 52
56 65 83 l23 47 0 2355 0 2355 -24 47 c-26 53 -77 102 -130 127 -33 15 -187
16 -1691 17 -910 1 -1674 -2 -1697 -6z m3364 -130 c68 -41 63 165 63 -2405 0
-2580 6 -2371 -65 -2415 -32 -20 -45 -20 -1694 -20 -1836 0 -1700 -5 -1741 63
-20 31 -20 69 -20 2365 0 2578 -5 2371 63 2412 31 20 63 20 1697 20 1634 0
1666 0 1697 -20z"/>
            <path d="M1390 4555 c0 -32 2 -35 30 -35 l30 0 0 -184 c0 -170 -1 -185 -21
-210 -20 -26 -57 -34 -94 -20 -20 8 -45 56 -45 89 0 22 -4 25 -36 25 l-37 0 6
-45 c13 -95 64 -145 148 -145 56 0 104 29 130 80 17 30 19 59 19 222 l0 188
30 0 c28 0 30 3 30 35 l0 35 -95 0 -95 0 0 -35z"/>
            <path d="M1385 3833 c-37 -63 -116 -163 -161 -203 l-37 -32 60 -61 c73 -76
113 -128 142 -186 l22 -43 21 38 c36 68 79 125 142 189 l61 63 -75 79 c-41 44
-91 107 -111 142 l-37 62 -27 -48z"/>
            <path d="M2525 3313 c-59 -15 -57 -46 8 -186 45 -95 46 -97 80 -97 33 0 36 3
76 83 25 50 44 102 48 134 5 50 5 53 -21 63 -27 10 -153 12 -191 3z"/>
            <path d="M2291 3240 c-91 -22 -162 -114 -183 -240 -10 -56 -16 -68 -42 -85
-79 -52 -47 -165 46 -165 84 0 118 91 58 151 -28 29 -29 32 -15 58 21 41 72
81 104 81 17 0 37 -10 52 -26 26 -28 25 -10 17 -294 -3 -135 7 -183 59 -281
41 -77 34 -88 -87 -132 -87 -32 -106 -36 -115 -24 -43 59 -125 34 -125 -38 0
-57 59 -83 109 -48 22 15 27 15 78 -2 30 -10 56 -22 58 -26 3 -4 -3 -33 -13
-65 -15 -49 -22 -59 -47 -66 -35 -9 -55 -33 -55 -65 0 -50 71 -81 114 -50 10
7 21 28 25 47 6 32 11 35 91 62 46 15 84 27 86 25 1 -1 16 -30 33 -64 30 -60
30 -63 14 -90 -14 -25 -14 -32 -2 -58 27 -54 103 -49 124 9 7 21 6 34 -7 56
-15 27 -15 30 19 89 19 33 37 61 41 60 4 0 41 -12 82 -28 62 -23 76 -32 78
-52 6 -36 31 -59 67 -59 80 0 90 117 11 131 -14 3 -25 20 -37 62 -16 54 -16
59 -1 64 10 3 38 14 63 24 46 17 47 17 65 -2 25 -28 68 -24 93 7 27 35 26 59
-4 89 -31 32 -59 32 -91 0 l-24 -24 -88 30 c-100 35 -132 53 -132 75 0 8 14
41 30 74 57 113 72 227 51 390 -17 128 12 200 79 200 33 0 84 -39 106 -81 14
-28 13 -30 -10 -40 -60 -28 -60 -130 1 -158 69 -31 133 11 133 88 0 27 -16 49
-53 74 -12 8 -24 41 -36 93 -34 157 -104 228 -226 228 -41 0 -71 -6 -88 -17
-13 -9 -48 -60 -77 -113 -51 -95 -52 -98 -39 -136 11 -35 10 -41 -8 -66 -13
-17 -31 -28 -51 -30 -64 -6 -99 38 -80 101 10 32 7 42 -38 127 -27 51 -60 101
-74 111 -31 21 -93 30 -139 19z m275 -415 c24 -18 62 -18 94 0 63 36 147 2
168 -68 40 -130 3 -265 -102 -373 -78 -80 -139 -84 -218 -15 -128 113 -170
351 -78 443 23 22 38 28 72 28 24 0 53 -7 64 -15z"/>
            <path d="M2480 2731 c71 -14 76 -35 10 -46 -72 -12 -40 -49 42 -50 35 0 38 2
38 28 0 42 -40 77 -87 76 l-38 -1 35 -7z"/>
            <path d="M2686 2718 c-13 -13 -27 -33 -31 -45 -9 -33 32 -48 86 -32 53 16 50
36 -6 45 -48 7 -62 30 -22 38 12 3 31 7 42 9 12 3 7 5 -12 6 -20 1 -41 -7 -57
-21z"/>
            <path d="M2485 2543 c-57 -14 -52 -49 16 -103 84 -66 165 -60 247 20 45 43 42
66 -9 80 -22 6 -46 9 -52 7 -7 -2 3 -7 21 -11 17 -4 32 -12 32 -17 0 -5 -1 -9
-2 -9 -2 0 -21 -7 -43 -16 l-40 -15 38 6 c46 7 48 -2 2 -21 -45 -18 -126 -18
-172 1 -49 21 -37 28 25 14 28 -6 64 -9 79 -6 24 3 23 4 -8 6 -44 1 -139 29
-139 40 0 4 15 13 33 19 32 10 11 14 -28 5z"/>
            <path d="M2595 2530 c3 -5 13 -10 21 -10 8 0 14 5 14 10 0 6 -9 10 -21 10 -11
0 -17 -4 -14 -10z"/>
            <path d="M2571 2981 c-16 -29 -14 -46 9 -66 41 -37 102 17 73 64 -16 25 -69
26 -82 2z"/>
            <path d="M3806 1802 c-13 -40 -85 -140 -150 -209 l-65 -70 45 -44 c59 -56 125
-142 153 -196 12 -24 23 -43 26 -43 3 0 14 19 26 43 26 51 75 114 147 188 l54
57 -45 41 c-56 52 -118 132 -156 201 -24 44 -30 49 -35 32z"/>
            <path d="M3766 1070 c-55 -36 -61 -57 -66 -270 l-5 -195 -27 -3 c-25 -3 -28
-8 -28 -38 l0 -34 95 0 95 0 0 35 c0 32 -2 35 -30 35 l-30 0 0 185 c0 184 0
186 25 210 51 51 118 19 131 -63 6 -40 8 -42 40 -42 33 0 34 2 34 38 -1 53
-33 118 -72 142 -44 27 -122 27 -162 0z"/>
        </g>
    </symbol>
    <symbol id="jh" viewBox="0 0 512.000000 512.000000"
            preserveAspectRatio="xMidYMid meet">
        <g transform="translate(0.000000,512.000000) scale(0.100000,-0.100000)"
           fill="red" stroke="none">
            <path d="M893 5100 c-84 -17 -150 -70 -187 -150 l-21 -45 -3 -2330 c-3 -2630
-10 -2398 77 -2485 87 -87 -61 -80 1801 -80 1821 0 1706 -4 1787 65 23 19 52
56 65 83 l23 47 0 2355 0 2355 -24 47 c-26 53 -77 102 -130 127 -33 15 -187
16 -1691 17 -910 1 -1674 -2 -1697 -6z m3364 -130 c68 -41 63 165 63 -2405 0
-2580 6 -2371 -65 -2415 -32 -20 -45 -20 -1694 -20 -1836 0 -1700 -5 -1741 63
-20 31 -20 69 -20 2365 0 2578 -5 2371 63 2412 31 20 63 20 1697 20 1634 0
1666 0 1697 -20z"/>
            <path d="M1390 4555 c0 -32 2 -35 30 -35 l30 0 0 -190 c0 -177 -1 -191 -20
-210 -49 -49 -130 -9 -130 63 0 36 -1 37 -35 37 -34 0 -35 -1 -35 -40 0 -82
52 -140 131 -148 66 -6 113 17 140 70 17 33 19 60 19 228 l0 190 30 0 c28 0
30 3 30 35 l0 35 -95 0 -95 0 0 -35z"/>
            <path d="M1224 3861 c-110 -67 -45 -275 157 -510 l36 -41 55 67 c129 158 188
276 188 373 0 79 -32 119 -101 127 -61 7 -101 -14 -126 -68 l-20 -43 -13 38
c-22 69 -110 97 -176 57z"/>
            <path d="M2490 3290 c-11 -20 7 -75 63 -202 24 -55 28 -58 61 -58 32 0 38 5
66 53 44 76 75 180 60 206 -10 19 -20 21 -125 21 -103 0 -115 -2 -125 -20z"/>
            <path d="M2830 3237 c-44 -12 -47 -15 -102 -117 -53 -98 -57 -108 -46 -136 16
-45 3 -83 -34 -99 -71 -29 -133 39 -97 106 14 28 -83 214 -123 235 -43 22
-136 18 -183 -9 -73 -41 -108 -107 -140 -259 -3 -17 -17 -33 -34 -43 -54 -27
-61 -108 -13 -145 51 -41 133 -13 147 49 7 33 -15 84 -42 100 -17 9 -17 12 1
46 46 84 127 101 162 33 13 -26 15 -57 9 -202 -8 -195 -2 -232 52 -349 36 -77
36 -78 17 -96 -10 -10 -61 -33 -111 -51 l-93 -32 -18 22 c-39 48 -122 17 -122
-44 0 -53 78 -87 115 -50 14 15 22 15 58 4 23 -7 51 -17 63 -24 21 -11 21 -11
2 -73 -16 -54 -22 -63 -42 -63 -50 0 -76 -79 -38 -113 42 -38 112 -9 112 45 0
24 8 29 90 56 l90 31 31 -61 c27 -53 29 -64 19 -88 -16 -39 -9 -70 21 -93 35
-25 78 -13 98 28 12 25 12 33 -2 57 -16 28 -15 31 16 94 17 35 36 63 42 61 5
-3 42 -15 82 -27 67 -22 72 -26 78 -57 7 -38 33 -55 78 -51 68 7 77 103 10
122 -27 8 -33 17 -47 65 -9 30 -12 58 -8 62 4 3 30 14 58 24 48 17 53 17 75 1
66 -46 138 21 99 94 -20 37 -86 33 -115 -7 -9 -12 -28 -8 -115 24 -124 45
-128 52 -80 149 46 94 64 190 54 294 -5 47 -9 120 -9 162 0 67 3 79 24 102 29
31 64 33 109 6 39 -24 75 -90 53 -98 -54 -18 -70 -104 -26 -147 76 -77 201 33
135 118 -11 14 -29 28 -39 32 -14 4 -22 23 -31 73 -15 81 -32 125 -66 169 -48
63 -141 92 -224 70z m-260 -412 c32 -19 61 -19 96 0 99 51 184 -29 184 -173 0
-102 -84 -262 -163 -310 -116 -73 -264 58 -298 265 -21 130 32 233 119 233 20
-1 48 -7 62 -15z"/>
            <path d="M2486 2731 c68 -17 72 -36 9 -45 -25 -4 -45 -11 -45 -16 0 -19 47
-40 88 -40 l45 0 -7 33 c-8 43 -48 77 -89 76 l-32 -1 31 -7z"/>
            <path d="M2686 2719 c-17 -13 -26 -30 -26 -49 0 -23 5 -30 29 -35 33 -7 106
19 96 34 -3 6 -26 13 -50 17 -63 9 -59 28 9 45 l31 7 -31 1 c-18 1 -43 -8 -58
-20z"/>
            <path d="M2483 2539 c-46 -13 -43 -42 10 -90 39 -37 88 -59 130 -59 54 0 157
76 157 116 0 19 -8 25 -41 34 -23 6 -43 9 -46 6 -3 -3 7 -8 21 -12 36 -9 28
-26 -20 -41 -69 -20 -191 -7 -201 23 -2 6 11 16 29 21 41 14 6 15 -39 2z m132
-64 c28 0 66 4 85 9 34 8 34 7 17 -10 -25 -27 -178 -28 -204 -1 -17 17 -16 17
17 10 19 -5 58 -8 85 -8z"/>
            <path d="M2595 2530 c3 -5 12 -10 20 -10 8 0 17 5 20 10 4 6 -5 10 -20 10 -15
0 -24 -4 -20 -10z"/>
            <path d="M2583 2992 c-24 -16 -19 -68 8 -83 27 -14 64 1 72 30 10 41 -42 77
-80 53z"/>
            <path d="M3774 1768 c-142 -154 -232 -348 -205 -439 32 -107 179 -122 226 -23
l17 37 13 -30 c39 -94 183 -99 221 -8 19 46 18 81 -6 159 -21 67 -124 231
-194 309 l-33 37 -39 -42z"/>
            <path d="M3785 1081 c-28 -12 -51 -40 -70 -84 -12 -28 -15 -77 -15 -217 l0
-180 -30 0 c-28 0 -30 -3 -30 -35 l0 -35 100 0 100 0 0 34 c0 32 -3 35 -32 38
l-33 3 -3 155 c-3 179 1 213 30 240 50 46 117 13 125 -63 5 -46 7 -47 39 -47
34 0 34 1 34 45 0 55 -18 93 -60 129 -26 21 -41 26 -83 25 -29 0 -61 -4 -72
-8z"/>
        </g>
    </symbol>
    <symbol id="joker1" viewBox="0 0 512.000000 512.000000"
            preserveAspectRatio="xMidYMid meet">
        <g transform="translate(0.000000,512.000000) scale(0.100000,-0.100000)"
           fill="#000000" stroke="none">
            <path d="M852 5091 c-60 -21 -113 -67 -145 -126 l-22 -40 0 -2365 0 -2365 22
-40 c28 -53 78 -99 133 -124 45 -20 57 -21 1720 -21 1663 0 1675 1 1720 21 55
25 105 71 133 124 l22 40 0 2365 c0 2287 -1 2366 -19 2400 -26 49 -74 98 -121
123 l-40 22 -1675 2 c-1605 2 -1677 2 -1728 -16z m3396 -121 c18 -11 41 -34
52 -52 20 -33 20 -56 20 -2358 0 -2302 0 -2325 -20 -2358 -11 -18 -34 -41 -52
-52 -33 -20 -51 -20 -1700 -18 l-1667 3 -30 29 c-16 15 -34 40 -40 55 -8 18
-10 700 -9 2357 3 2316 3 2332 23 2354 11 13 34 31 50 41 29 18 91 19 1685 19
1634 0 1655 0 1688 -20z"/>
            <path d="M1380 4555 c0 -32 2 -35 30 -35 l30 0 0 -185 c0 -184 0 -186 -25
-210 -51 -52 -125 -13 -125 65 l0 41 -37 -3 -38 -3 2 -48 c5 -96 60 -151 150
-151 60 0 96 21 128 75 18 30 20 56 23 227 l4 192 24 0 c21 0 24 5 24 35 l0
35 -95 0 -95 0 0 -35z"/>
            <path d="M1374 3839 c-138 -151 -190 -304 -128 -378 15 -18 35 -31 48 -31 23
0 61 30 83 66 10 16 11 13 7 -21 -3 -22 -10 -62 -15 -88 -14 -76 -15 -75 46
-79 32 -2 55 1 55 7 0 6 -7 45 -15 88 -21 108 -19 118 10 76 37 -56 77 -64
115 -24 66 70 15 228 -124 382 l-41 45 -41 -43z"/>
            <path d="M2496 3304 c-24 -23 -20 -38 32 -159 l48 -110 39 0 c40 0 40 0 82 82
46 90 63 164 43 188 -18 22 -222 22 -244 -1z"/>
            <path d="M2255 3231 c-77 -36 -123 -109 -146 -232 -10 -56 -16 -67 -39 -77
-53 -24 -65 -93 -24 -141 51 -60 148 -30 160 50 5 31 1 41 -26 73 l-33 37 29
42 c68 97 164 64 164 -55 0 -24 -5 -88 -11 -143 -15 -123 2 -219 55 -332 20
-40 33 -80 30 -88 -3 -7 -42 -28 -86 -45 -116 -44 -123 -45 -147 -21 -44 44
-121 13 -121 -47 0 -58 77 -94 114 -53 17 19 18 19 77 -2 32 -12 59 -26 59
-30 0 -5 -7 -33 -16 -63 -12 -42 -20 -54 -35 -54 -25 0 -69 -43 -69 -68 0 -35
38 -72 75 -72 38 0 80 42 72 72 -4 14 12 23 84 47 l89 30 30 -60 c24 -46 28
-64 20 -79 -36 -67 25 -139 90 -105 35 18 49 66 27 98 -13 20 -12 28 17 85 17
34 35 61 41 59 5 -3 43 -15 83 -28 62 -20 72 -26 72 -46 0 -54 86 -86 123 -45
26 29 22 77 -9 101 -15 12 -32 21 -39 21 -12 0 -46 98 -39 111 2 3 27 14 57
24 51 17 56 17 78 2 33 -24 66 -21 94 8 30 29 32 64 5 93 -27 29 -76 29 -107
1 l-22 -22 -93 33 c-136 48 -135 47 -88 144 51 105 64 175 55 301 -14 184 -11
232 15 261 13 13 35 24 49 24 36 0 87 -34 106 -70 15 -30 15 -31 -14 -56 -38
-31 -47 -73 -27 -113 31 -60 99 -70 147 -22 47 47 38 116 -20 145 -24 13 -29
24 -40 86 -26 161 -104 240 -235 240 -86 0 -100 -11 -162 -127 -54 -99 -55
-104 -42 -138 10 -31 10 -40 -2 -62 -46 -82 -163 -26 -131 63 12 32 10 39 -40
134 -41 78 -59 102 -84 115 -44 20 -121 19 -170 -4z m320 -408 c31 -15 40 -15
68 -4 48 20 106 25 133 11 40 -22 69 -95 67 -175 -1 -84 -27 -160 -80 -229
-67 -87 -122 -113 -188 -91 -84 30 -164 148 -186 277 -9 55 -8 76 5 121 29 99
94 132 181 90z"/>
            <path d="M2456 2741 c-5 -7 5 -11 27 -11 19 0 40 -7 47 -15 10 -12 6 -15 -29
-21 -47 -8 -58 -18 -41 -39 8 -10 31 -15 66 -15 51 0 54 2 54 24 0 36 -39 76
-81 82 -22 4 -39 2 -43 -5z"/>
            <path d="M2705 2738 c-30 -16 -45 -39 -45 -69 0 -22 6 -28 31 -33 32 -6 99 16
99 33 0 10 -13 15 -68 26 -27 6 -31 9 -21 21 6 8 30 14 53 15 32 0 37 2 21 9
-27 12 -46 11 -70 -2z"/>
            <path d="M2502 2550 c-44 -10 -56 -23 -48 -53 7 -30 76 -83 126 -98 53 -16
112 3 165 55 67 64 59 84 -40 99 l-40 6 40 -18 40 -19 -37 -16 c-21 -9 -62
-16 -93 -16 -31 0 -72 7 -93 16 l-37 16 40 18 c42 19 33 23 -23 10z m83 -75
c22 -4 60 -2 85 4 51 11 62 8 30 -9 -42 -22 -122 -22 -165 0 -28 14 -33 19
-15 16 14 -3 43 -8 65 -11z"/>
            <path d="M2595 2530 c3 -5 12 -10 20 -10 8 0 17 5 20 10 4 6 -5 10 -20 10 -15
0 -24 -4 -20 -10z"/>
            <path d="M2575 2990 c-36 -40 11 -104 60 -82 32 15 40 47 21 77 -20 30 -56 32
-81 5z"/>
            <path d="M3755 1790 c10 -33 25 -124 25 -154 l-1 -31 -15 27 c-26 48 -86 64
-117 31 -23 -27 -37 -93 -28 -133 16 -70 103 -211 169 -274 l30 -28 65 81 c91
116 122 181 122 258 0 51 -4 66 -24 87 -42 44 -92 29 -129 -39 l-11 -20 0 20
c0 11 6 56 14 100 8 44 15 82 15 85 0 3 -27 5 -60 5 -49 1 -59 -2 -55 -15z"/>
            <path d="M3805 1086 c-37 -16 -70 -52 -84 -89 -6 -16 -11 -105 -11 -207 l0
-179 -27 -3 c-24 -3 -28 -8 -31 -40 l-3 -38 101 0 101 0 -3 38 c-3 32 -7 37
-30 40 l-28 3 0 184 0 184 26 20 c60 47 124 5 124 -79 0 -30 2 -31 38 -28 l37
3 -3 49 c-3 64 -34 113 -86 137 -48 22 -80 23 -121 5z"/>
        </g>
    </symbol>
    <symbol id="kd" viewBox="0 0 512.000000 512.000000"
            preserveAspectRatio="xMidYMid meet">
        <g transform="translate(0.000000,512.000000) scale(0.100000,-0.100000)"
           fill="red" stroke="none">
            <path d="M893 5100 c-84 -17 -150 -70 -187 -150 l-21 -45 -3 -2330 c-3 -2630
-10 -2398 77 -2485 87 -87 -61 -80 1801 -80 1821 0 1706 -4 1787 65 23 19 52
56 65 83 l23 47 0 2355 0 2355 -24 47 c-26 53 -77 102 -130 127 -33 15 -187
16 -1691 17 -910 1 -1674 -2 -1697 -6z m3364 -130 c68 -41 63 165 63 -2405 0
-2580 6 -2371 -65 -2415 -32 -20 -45 -20 -1694 -20 -1836 0 -1700 -5 -1741 63
-20 31 -20 69 -20 2365 0 2578 -5 2371 63 2412 31 20 63 20 1697 20 1634 0
1666 0 1697 -20z"/>
            <path d="M1220 4565 c0 -20 5 -25 25 -25 l25 0 0 -225 0 -225 -25 0 c-20 0
-25 -5 -25 -25 0 -24 2 -25 75 -25 73 0 75 1 75 24 0 18 -6 25 -22 28 -20 3
-23 9 -26 58 -2 47 3 62 29 104 l31 49 44 -102 c24 -57 44 -105 44 -107 0 -2
-11 -4 -25 -4 -20 0 -25 -5 -25 -25 0 -25 1 -25 80 -25 79 0 80 0 80 25 0 20
-5 25 -23 25 -21 0 -31 17 -82 135 l-57 135 58 90 c45 69 64 90 82 90 17 0 22
6 22 25 0 25 -1 25 -80 25 -79 0 -80 0 -80 -25 0 -20 5 -25 26 -25 14 0 24 -4
22 -9 -9 -24 -134 -211 -141 -211 -4 0 -6 48 -5 108 3 102 4 107 26 110 16 3
22 10 22 28 0 23 -2 24 -75 24 -73 0 -75 -1 -75 -25z"/>
            <path d="M1385 3833 c-37 -63 -116 -163 -161 -203 l-37 -32 60 -61 c73 -76
113 -128 142 -186 l22 -43 21 38 c36 68 79 125 142 189 l61 63 -75 79 c-41 44
-91 107 -111 142 l-37 62 -27 -48z"/>
            <path d="M3235 3368 c-29 -17 -35 -30 -29 -63 5 -27 2 -32 -28 -45 -61 -27
-45 -110 22 -110 31 0 45 16 95 106 33 59 29 94 -10 112 -30 14 -25 14 -50 0z"/>
            <path d="M1919 3346 c-15 -33 -7 -59 41 -133 33 -53 44 -63 68 -63 72 0 85 87
17 110 -30 10 -33 14 -25 34 14 38 -9 70 -53 74 -31 3 -39 -1 -48 -22z"/>
            <path d="M2365 3350 c-12 -13 -16 -29 -12 -47 4 -24 1 -30 -26 -43 -26 -12
-33 -22 -35 -52 -2 -29 1 -39 18 -48 32 -17 73 -8 86 18 l11 23 17 -26 c29
-45 106 -26 106 26 0 32 -17 56 -44 63 -22 5 -25 10 -19 36 7 38 -19 70 -57
70 -15 0 -35 -9 -45 -20z"/>
            <path d="M2775 3350 c-12 -13 -16 -29 -12 -47 4 -24 1 -30 -26 -43 -60 -28
-43 -110 23 -110 18 0 34 8 44 22 l16 22 16 -22 c10 -14 26 -22 44 -22 66 0
83 82 24 110 -28 13 -31 19 -27 46 9 57 -62 88 -102 44z"/>
            <path d="M2027 3103 c-14 -14 -6 -40 21 -70 85 -93 230 -92 309 2 20 25 43 45
49 45 7 0 25 -15 41 -34 46 -56 97 -80 167 -80 73 1 111 18 158 74 19 22 40
40 46 40 7 0 33 -22 59 -49 61 -62 112 -79 191 -61 40 9 65 22 99 55 28 27 43
50 41 62 -3 17 -30 18 -589 21 -322 1 -589 -1 -592 -5z"/>
            <path d="M2122 2914 c-26 -18 -28 -37 -6 -58 14 -14 73 -16 498 -16 361 0 485
3 494 12 18 18 14 56 -7 68 -13 6 -184 10 -488 10 -408 0 -471 -2 -491 -16z"/>
            <path d="M2069 2743 c-179 -399 -199 -450 -199 -504 0 -66 30 -117 87 -145 32
-16 69 -20 238 -24 l200 -5 17 -35 c10 -19 40 -84 68 -145 55 -119 78 -150
127 -171 46 -20 490 -20 536 0 68 29 115 113 104 183 -21 129 -190 189 -284
101 -13 -12 -25 -20 -26 -17 -2 2 -16 30 -30 62 l-26 57 -46 0 c-55 0 -57 12
25 -170 32 -71 55 -132 50 -135 -14 -9 -44 42 -103 175 l-56 125 -50 3 -50 3
64 -143 c68 -152 77 -181 48 -157 -15 13 -68 119 -122 242 -14 34 -29 52 -49
59 l-28 11 23 45 c28 55 29 103 4 158 -22 48 -59 77 -119 94 -27 7 -42 16 -39
23 3 7 39 90 81 185 43 95 74 177 71 182 -3 6 -22 10 -40 10 -25 0 -39 -6 -49
-22 -8 -13 -62 -130 -120 -260 -95 -212 -106 -243 -106 -294 0 -56 -1 -57 -17
-41 -37 37 -24 87 90 343 59 132 107 248 107 258 0 14 -8 17 -42 14 l-43 -3
-114 -255 c-85 -190 -115 -269 -119 -308 -4 -43 -7 -50 -18 -41 -33 27 -16 87
96 342 67 152 107 254 102 259 -5 5 -26 8 -47 6 l-37 -3 -114 -255 c-108 -240
-114 -258 -112 -313 3 -66 -6 -73 -28 -20 -21 48 -19 53 110 343 58 129 102
238 100 242 -3 4 -23 8 -45 8 -40 0 -40 -1 -70 -67z m429 -449 c30 -34 28 -70
-7 -105 -34 -34 -68 -37 -104 -9 -33 26 -41 63 -22 101 29 54 90 60 133 13z
m87 -349 c34 -77 61 -141 60 -143 -1 -1 -9 0 -18 3 -17 7 -138 265 -130 278
12 20 30 -8 88 -138z m550 -20 c16 -15 25 -36 25 -55 0 -71 -91 -107 -140 -55
-72 77 41 185 115 110z"/>
            <path d="M2400 2280 c-25 -25 -26 -52 -2 -73 24 -22 55 -21 75 1 23 26 21 58
-5 76 -30 21 -44 20 -68 -4z"/>
            <path d="M3034 1899 c-17 -19 -17 -23 -3 -47 18 -33 54 -40 80 -16 23 21 24
47 3 68 -22 22 -57 20 -80 -5z"/>
            <path d="M2696 2795 c-46 -16 -91 -58 -105 -96 -10 -29 -10 -29 33 -29 29 0
51 7 66 20 31 27 63 34 89 20 22 -11 28 -30 10 -30 -6 0 -55 -14 -110 -31
l-99 -31 0 -45 c0 -44 0 -45 28 -38 64 18 111 24 175 25 58 0 67 2 67 18 0 23
19 42 42 42 26 0 33 25 19 70 -14 46 -67 95 -118 109 -47 13 -49 13 -97 -4z"/>
            <path d="M3040 2778 c-45 -31 -69 -66 -76 -109 -5 -30 4 -59 50 -163 54 -121
59 -146 33 -146 -6 0 -25 -13 -42 -30 l-31 -30 -39 40 c-21 22 -34 40 -27 40
15 0 16 66 2 75 -17 11 -59 -23 -74 -59 -7 -18 -27 -44 -44 -57 -33 -27 -172
-183 -172 -194 0 -3 66 -5 146 -3 l146 3 32 36 33 35 30 -35 30 -36 147 -3
c80 -2 146 -1 146 3 0 11 -120 149 -168 193 -40 36 -43 42 -24 42 12 0 22 5
22 11 0 6 -25 67 -56 135 -54 122 -55 125 -39 151 9 14 26 28 36 30 15 4 19
15 19 49 0 40 -2 44 -24 44 -12 0 -38 -10 -56 -22z"/>
            <path d="M2930 2092 c0 -15 24 -32 45 -32 21 0 45 17 45 32 0 4 -20 8 -45 8
-25 0 -45 -4 -45 -8z"/>
            <path d="M3806 1802 c-13 -40 -85 -140 -150 -209 l-65 -70 45 -44 c59 -56 125
-142 153 -196 12 -24 23 -43 26 -43 3 0 14 19 26 43 26 51 75 114 147 188 l54
57 -45 41 c-56 52 -118 132 -156 201 -24 44 -30 49 -35 32z"/>
            <path d="M3640 1060 c0 -24 4 -30 21 -30 21 0 33 -23 107 -197 l31 -72 -56
-86 c-44 -68 -60 -85 -79 -85 -20 0 -24 -5 -24 -30 l0 -30 80 0 80 0 0 30 c0
23 -4 30 -20 30 -11 0 -20 2 -20 6 0 3 29 51 65 106 l65 101 0 -106 c0 -100
-1 -107 -20 -107 -16 0 -20 -7 -20 -30 l0 -30 75 0 75 0 0 30 c0 25 -4 30 -25
30 l-25 0 0 220 0 220 25 0 c21 0 25 5 25 30 l0 30 -75 0 -75 0 0 -30 c0 -23
4 -30 20 -30 18 0 20 -7 20 -61 0 -44 -6 -71 -22 -99 -13 -22 -26 -40 -29 -40
-4 0 -23 38 -43 85 -53 124 -52 115 -22 115 22 0 26 4 26 30 l0 30 -80 0 -80
0 0 -30z"/>
        </g>
    </symbol>
    <symbol id="kh" viewBox="0 0 512.000000 512.000000"
            preserveAspectRatio="xMidYMid meet">
        <g transform="translate(0.000000,512.000000) scale(0.100000,-0.100000)"
           fill="red" stroke="none">
            <path d="M893 5100 c-84 -17 -150 -70 -187 -150 l-21 -45 -3 -2330 c-3 -2630
-10 -2398 77 -2485 87 -87 -61 -80 1801 -80 1821 0 1706 -4 1787 65 23 19 52
56 65 83 l23 47 0 2355 0 2355 -24 47 c-26 53 -77 102 -130 127 -33 15 -187
16 -1691 17 -910 1 -1674 -2 -1697 -6z m3364 -130 c68 -41 63 165 63 -2405 0
-2580 6 -2371 -65 -2415 -32 -20 -45 -20 -1694 -20 -1836 0 -1700 -5 -1741 63
-20 31 -20 69 -20 2365 0 2578 -5 2371 63 2412 31 20 63 20 1697 20 1634 0
1666 0 1697 -20z"/>
            <path d="M1230 4566 c0 -18 6 -25 23 -28 22 -3 22 -3 25 -225 l2 -223 -25 0
c-20 0 -25 -5 -25 -25 0 -24 2 -25 70 -25 68 0 70 1 70 25 0 18 -5 25 -20 25
-18 0 -20 7 -20 63 0 51 5 69 29 105 l28 43 42 -96 c22 -53 41 -101 41 -106 0
-5 -11 -9 -25 -9 -20 0 -25 -5 -25 -25 0 -25 1 -25 80 -25 78 0 80 1 80 24 0
18 -6 26 -22 28 -18 2 -32 26 -75 127 -29 69 -53 131 -53 138 0 7 25 51 55 98
39 61 60 85 75 85 15 0 20 7 20 25 0 25 -1 25 -80 25 -79 0 -80 0 -80 -25 0
-20 5 -25 25 -25 14 0 25 -4 25 -8 0 -9 -115 -191 -130 -206 -7 -7 -10 30 -10
102 0 105 1 112 20 112 15 0 20 7 20 25 0 24 -2 25 -70 25 -67 0 -70 -1 -70
-24z"/>
            <path d="M1224 3861 c-110 -67 -45 -275 157 -510 l36 -41 55 67 c129 158 188
276 188 373 0 79 -32 119 -101 127 -61 7 -101 -14 -126 -68 l-20 -43 -13 38
c-22 69 -110 97 -176 57z"/>
            <path d="M3232 3364 c-18 -12 -22 -24 -20 -52 3 -32 -1 -39 -26 -52 -44 -22
-54 -45 -36 -78 24 -42 71 -42 103 0 71 95 85 162 38 187 -26 14 -32 14 -59
-5z"/>
            <path d="M1925 3350 c-22 -25 -16 -47 33 -130 34 -56 44 -65 71 -68 42 -4 61
13 61 52 0 38 -15 56 -47 56 -22 0 -23 3 -17 35 5 27 2 41 -11 55 -23 26 -67
26 -90 0z"/>
            <path d="M2373 3358 c-18 -24 -23 -49 -13 -69 9 -15 7 -19 -7 -19 -32 0 -63
-29 -63 -59 0 -58 75 -84 106 -36 l17 26 11 -23 c9 -18 20 -23 51 -23 34 0 42
4 53 28 12 24 11 31 -2 52 -9 14 -27 27 -39 30 -19 5 -22 11 -19 41 2 19 -1
41 -8 49 -15 18 -74 20 -87 3z"/>
            <path d="M2783 3358 c-18 -24 -23 -49 -13 -68 8 -15 6 -19 -12 -22 -11 -2 -30
-16 -42 -31 -19 -26 -19 -30 -5 -55 21 -39 72 -43 95 -7 l17 26 11 -23 c9 -18
20 -23 51 -23 34 0 42 4 53 28 12 24 11 31 -2 52 -9 14 -27 27 -39 30 -19 5
-22 11 -19 41 2 19 -1 41 -8 49 -15 18 -74 20 -87 3z"/>
            <path d="M2027 3103 c-14 -13 -6 -33 24 -68 45 -51 84 -68 154 -69 69 -1 122
24 168 80 16 19 33 34 38 34 5 0 30 -22 56 -49 93 -96 233 -91 314 10 17 22
35 39 41 39 6 0 32 -22 58 -49 54 -56 108 -77 175 -66 79 11 168 87 152 129
-6 14 -69 16 -590 16 -321 0 -587 -3 -590 -7z"/>
            <path d="M2128 2919 c-21 -12 -24 -49 -6 -67 9 -9 133 -12 494 -12 425 0 484
2 498 16 18 18 20 32 6 54 -8 13 -76 15 -492 17 -319 2 -489 -1 -500 -8z"/>
            <path d="M2103 2798 c-5 -7 -58 -123 -118 -258 -124 -279 -132 -314 -83 -387
45 -68 75 -76 303 -83 l199 -5 13 -25 c7 -14 36 -77 64 -140 29 -63 63 -128
78 -144 48 -52 70 -56 323 -56 205 0 238 3 274 19 102 46 129 165 59 257 -59
77 -179 85 -257 16 -16 -13 -20 -10 -44 47 l-27 61 -48 0 c-57 0 -59 18 25
-170 31 -68 55 -129 53 -134 -6 -19 -47 49 -105 174 l-58 125 -47 3 c-26 2
-47 1 -47 -1 0 -3 29 -71 65 -152 36 -81 63 -150 60 -154 -13 -13 -49 51 -138
252 -21 47 -31 58 -56 63 l-29 6 24 35 c32 47 35 122 8 174 -18 35 -69 78
-102 85 -15 3 -34 8 -44 10 -13 4 -3 34 64 184 47 104 78 186 74 195 -4 12
-16 15 -43 13 l-38 -3 -115 -255 c-104 -231 -115 -260 -114 -312 0 -32 -3 -58
-7 -58 -11 0 -29 50 -29 81 0 16 50 140 110 277 61 136 108 253 105 259 -2 7
-20 13 -39 13 -26 0 -39 -6 -50 -22 -8 -13 -62 -131 -120 -264 -85 -193 -106
-249 -106 -287 0 -55 -14 -61 -29 -14 -15 45 -5 74 118 346 58 129 97 229 92
234 -4 4 -25 7 -46 5 l-37 -3 -110 -245 c-94 -209 -111 -255 -117 -315 l-7
-70 -18 39 c-11 25 -15 48 -10 69 3 17 55 139 114 271 59 133 106 244 103 249
-7 12 -80 8 -90 -5z m395 -501 c49 -45 11 -137 -58 -137 -69 0 -107 92 -57
137 41 38 73 38 115 0z m90 -347 c34 -77 62 -146 62 -152 0 -33 -52 49 -99
154 -47 106 -55 138 -33 138 4 0 35 -63 70 -140z m549 -22 c33 -31 32 -90 -3
-117 -36 -28 -79 -27 -109 4 -73 73 37 184 112 113z"/>
            <path d="M2412 2284 c-34 -23 -27 -75 11 -88 33 -12 56 -1 68 33 7 17 3 28
-16 47 -28 28 -33 29 -63 8z"/>
            <path d="M3034 1895 c-15 -23 -15 -27 0 -50 38 -57 116 -12 88 50 -9 19 -19
25 -42 25 -21 0 -34 -8 -46 -25z"/>
            <path d="M2714 2800 c-58 -13 -124 -77 -124 -120 0 -17 86 -12 101 6 20 25 56
35 84 24 14 -5 25 -13 25 -18 0 -5 -48 -24 -107 -43 -107 -34 -108 -34 -111
-67 -5 -52 3 -65 30 -51 13 7 72 17 133 23 103 10 110 12 113 34 3 16 12 25
33 29 24 5 29 10 29 35 0 91 -110 170 -206 148z"/>
            <path d="M3038 2775 c-20 -13 -46 -44 -58 -69 -26 -54 -24 -62 48 -223 l50
-111 -29 -12 c-16 -7 -39 -24 -50 -38 l-20 -25 -33 32 c-30 29 -33 37 -29 75
3 27 1 46 -6 51 -16 10 -58 -20 -67 -47 -4 -13 -47 -65 -96 -117 -49 -52 -98
-107 -109 -123 l-20 -28 129 0 c146 0 183 9 210 51 l19 30 17 -26 c29 -44 71
-55 216 -55 l131 0 -65 79 c-36 43 -84 95 -106 115 -44 39 -47 46 -25 46 25 0
17 29 -35 144 -60 131 -62 150 -15 177 30 18 35 26 35 60 0 36 -2 39 -28 39
-15 0 -44 -11 -64 -25z"/>
            <path d="M2930 2092 c0 -16 25 -32 50 -32 25 0 50 16 50 32 0 4 -22 8 -50 8
-27 0 -50 -4 -50 -8z"/>
            <path d="M3774 1768 c-142 -154 -232 -348 -205 -439 32 -107 179 -122 226 -23
l17 37 13 -30 c39 -94 183 -99 221 -8 19 46 18 81 -6 159 -21 67 -124 231
-194 309 l-33 37 -39 -42z"/>
            <path d="M3640 1060 c0 -25 4 -30 23 -30 21 0 31 -17 81 -134 l57 -134 -53
-86 c-45 -73 -57 -85 -80 -86 -24 0 -28 -4 -28 -30 l0 -30 85 0 85 0 0 29 c0
24 -5 30 -25 33 -25 3 -25 4 36 98 33 52 65 99 70 104 5 6 9 -32 9 -96 0 -103
-1 -107 -22 -110 -17 -2 -24 -11 -26 -30 l-3 -28 75 0 76 0 0 30 c0 25 -4 30
-25 30 l-25 0 0 220 0 220 25 0 c21 0 25 5 25 30 l0 31 -72 -3 c-71 -3 -73 -4
-76 -30 -3 -21 1 -27 20 -30 20 -3 23 -9 26 -55 2 -42 -2 -62 -23 -98 -15 -25
-30 -45 -33 -45 -8 0 -82 173 -82 190 0 5 11 10 25 10 21 0 25 5 25 30 l0 30
-85 0 -85 0 0 -30z"/>
        </g>
    </symbol>
    <symbol id="qd" viewBox="0 0 512.000000 512.000000"
            preserveAspectRatio="xMidYMid meet">
        <g transform="translate(0.000000,512.000000) scale(0.100000,-0.100000)"
           fill="red" stroke="none">
            <path d="M893 5100 c-84 -17 -150 -70 -187 -150 l-21 -45 -3 -2330 c-3 -2630
-10 -2398 77 -2485 87 -87 -61 -80 1801 -80 1821 0 1706 -4 1787 65 23 19 52
56 65 83 l23 47 0 2355 0 2355 -24 47 c-26 53 -77 102 -130 127 -33 15 -187
16 -1691 17 -910 1 -1674 -2 -1697 -6z m3364 -130 c68 -41 63 165 63 -2405 0
-2580 6 -2371 -65 -2415 -32 -20 -45 -20 -1694 -20 -1836 0 -1700 -5 -1741 63
-20 31 -20 69 -20 2365 0 2578 -5 2371 63 2412 31 20 63 20 1697 20 1634 0
1666 0 1697 -20z"/>
            <path d="M1345 4576 c-16 -7 -41 -26 -55 -41 -23 -25 -25 -34 -28 -151 -3
-114 -5 -124 -23 -124 -14 0 -19 -7 -19 -30 0 -23 4 -30 20 -30 17 0 20 -7 20
-45 0 -38 6 -51 36 -85 44 -49 90 -60 153 -37 31 11 51 13 68 6 46 -17 63 -12
63 21 0 25 -4 30 -25 30 l-25 0 0 206 c0 231 -4 244 -74 278 -41 19 -71 20
-111 2z m108 -73 c15 -14 17 -37 17 -181 l0 -165 -46 42 c-25 24 -58 47 -75
53 l-29 10 0 112 c0 117 5 132 50 149 21 8 62 -2 83 -20z m-64 -357 c43 -43
49 -54 36 -60 -29 -11 -52 -7 -79 15 -20 16 -26 29 -26 60 0 21 4 39 8 39 4 0
32 -24 61 -54z"/>
            <path d="M1380 3818 c-19 -33 -69 -97 -111 -142 l-76 -81 76 -81 c42 -44 92
-107 111 -141 l35 -60 35 60 c19 33 69 97 111 141 l77 81 -74 78 c-40 43 -91
107 -111 141 l-39 64 -34 -60z"/>
            <path d="M2528 3390 c-11 -7 -18 -23 -18 -40 l0 -30 105 0 c102 0 105 1 105
23 0 44 -15 52 -97 55 -43 1 -86 -2 -95 -8z"/>
            <path d="M2359 3239 c-14 -14 -19 -30 -17 -57 l3 -37 113 -3 112 -3 0 61 0 60
-95 0 c-83 0 -98 -3 -116 -21z"/>
            <path d="M2660 3200 l0 -60 109 0 c90 0 110 3 115 16 12 30 6 55 -19 79 -22
23 -32 25 -115 25 l-90 0 0 -60z"/>
            <path d="M2375 3033 c19 -50 17 -70 -6 -76 -21 -6 -22 -9 -16 -74 7 -70 -9
-159 -33 -189 -7 -8 -28 -14 -46 -14 -41 0 -74 -29 -74 -65 0 -49 31 -65 128
-65 61 0 96 -5 117 -16 17 -9 44 -24 60 -33 20 -11 55 -16 110 -16 72 0 86 3
136 33 52 30 63 32 146 32 102 0 123 12 123 68 0 36 -30 62 -72 62 -38 0 -53
20 -72 95 -12 49 -14 71 -6 86 6 11 10 37 8 57 -2 30 -7 38 -26 40 -19 3 -23
8 -18 25 21 74 29 67 -83 67 l-101 0 0 -45 0 -45 -40 0 -40 0 0 45 0 45 -101
0 c-92 0 -101 -2 -94 -17z m428 -317 c-8 -122 -140 -206 -256 -162 -48 18 -91
54 -110 94 -16 32 -28 98 -19 106 3 4 92 5 196 4 l191 -3 -2 -39z"/>
            <path d="M2410 2403 c0 -46 41 -105 95 -138 45 -27 50 -33 47 -62 -4 -38 -10
-40 -61 -13 -58 29 -106 91 -126 161 l-17 61 -46 -7 c-62 -9 -95 -28 -124 -67
-23 -32 -23 -38 -26 -320 l-3 -288 91 0 90 0 0 120 0 120 30 0 30 0 0 -120 0
-120 220 0 220 0 0 120 0 120 30 0 30 0 0 -120 0 -120 95 0 95 0 0 258 c0 156
-4 273 -11 297 -14 51 -65 100 -118 115 -61 16 -76 8 -100 -59 -23 -63 -86
-143 -132 -166 -41 -22 -44 -20 -46 28 -1 39 2 44 41 68 67 41 110 148 64 157
-12 2 -23 -11 -39 -47 -54 -127 -209 -129 -269 -4 -28 60 -60 73 -60 26z"/>
            <path d="M2095 2387 c-27 -27 -45 -72 -119 -293 -47 -144 -86 -270 -86 -280 0
-10 9 -34 20 -51 19 -32 21 -33 90 -33 l70 0 0 273 c0 293 2 306 61 388 28 39
5 37 -36 -4z"/>
            <path d="M3098 2393 c48 -68 52 -97 52 -389 l0 -274 74 0 c83 0 95 7 103 68 4
30 -13 92 -81 298 -48 142 -92 266 -99 275 -6 8 -25 24 -42 35 l-30 19 23 -32z"/>
            <path d="M3774 1754 c-21 -37 -72 -103 -113 -146 l-73 -78 79 -83 c43 -46 93
-111 111 -145 l33 -62 26 47 c31 59 110 159 163 207 l41 37 -44 39 c-53 47
-117 129 -155 199 l-29 52 -39 -67z"/>
            <path d="M3757 1086 c-21 -11 -34 -13 -47 -6 -10 6 -32 10 -49 10 -28 0 -31
-3 -31 -29 0 -24 5 -30 26 -33 l25 -3 2 -207 c2 -205 2 -207 27 -233 68 -73
152 -73 220 0 23 25 25 34 28 151 3 114 5 124 23 124 14 0 19 7 19 30 0 23 -4
30 -20 30 -16 0 -20 7 -20 36 0 45 -23 93 -57 118 -35 26 -110 31 -146 12z
m96 -57 c26 -12 47 -47 47 -79 0 -35 -16 -29 -69 24 -36 37 -49 55 -40 59 22
9 36 8 62 -4z m14 -161 l33 -12 0 -102 c0 -87 -3 -105 -21 -128 -24 -31 -81
-36 -111 -9 -16 14 -18 34 -18 175 l0 160 42 -36 c23 -20 57 -41 75 -48z"/>
        </g>
    </symbol>
</svg>

