<svg width="0" height="0" class="hidden">
  <symbol fill="none" xmlns="http://www.w3.org/2000/svg" viewBox="0 0 24 12" id="Arrow_2">
    <path d="M23.53 6.53a.75.75 0 0 0 0-1.06L18.757.697a.75.75 0 0 0-1.06 1.06L21.939 6l-4.242 4.243a.75.75 0 0 0 1.06 1.06L23.53 6.53ZM0 6.75h23v-1.5H0v1.5Z" fill="#7B7B7B"></path>
  </symbol>
  <symbol fill="none" xmlns="http://www.w3.org/2000/svg" viewBox="0 0 14 24" id="facebook-icon">
    <path d="m12.585 13.5.666-4.343H9.083V6.338c0-1.188.583-2.347 2.45-2.347h1.894V.293S11.707 0 10.063 0C6.631 0 4.388 2.08 4.388 5.846v3.31H.573V13.5h3.815V24h4.695V13.5h3.502Z" fill="#565656"></path>
  </symbol>
  <symbol fill="none" xmlns="http://www.w3.org/2000/svg" viewBox="0 0 34 22" id="hamburger">
    <g stroke="#000" stroke-width="2">
      <path d="M0 1h34M0 11h34M0 21h34"></path>
    </g>
  </symbol>
  <symbol fill="none" xmlns="http://www.w3.org/2000/svg" viewBox="0 0 24 24" id="instagram-icon">
    <path d="M12.003 5.847A6.144 6.144 0 0 0 5.85 12a6.144 6.144 0 0 0 6.153 6.153A6.144 6.144 0 0 0 18.156 12a6.144 6.144 0 0 0-6.153-6.153Zm0 10.153c-2.201 0-4-1.794-4-4s1.794-4 4-4 4 1.794 4 4-1.799 4-4 4Zm7.84-10.405c0 .798-.642 1.435-1.435 1.435a1.435 1.435 0 1 1 1.435-1.435Zm4.076 1.457c-.091-1.923-.53-3.626-1.94-5.029C20.578.62 18.875.181 16.952.084c-1.981-.112-7.92-.112-9.902 0-1.917.091-3.62.53-5.028 1.934C.612 3.42.178 5.124.08 7.046c-.112 1.982-.112 7.92 0 9.902.092 1.923.531 3.626 1.94 5.029 1.408 1.403 3.106 1.842 5.028 1.939 1.982.112 7.92.112 9.902 0 1.923-.091 3.626-.53 5.029-1.939 1.403-1.403 1.842-3.106 1.939-5.029.112-1.981.112-7.915 0-9.896Zm-2.56 12.022a4.05 4.05 0 0 1-2.282 2.282c-1.58.626-5.328.482-7.074.482-1.746 0-5.5.139-7.075-.482a4.05 4.05 0 0 1-2.28-2.282c-.627-1.58-.483-5.328-.483-7.074 0-1.746-.14-5.5.482-7.074a4.05 4.05 0 0 1 2.281-2.282c1.58-.626 5.33-.482 7.075-.482 1.746 0 5.5-.139 7.074.482a4.05 4.05 0 0 1 2.282 2.282c.626 1.58.482 5.328.482 7.074 0 1.746.144 5.5-.482 7.074Z" fill="#565656"></path>
  </symbol>
  <symbol fill="none" xmlns="http://www.w3.org/2000/svg" viewBox="0 0 24 24" id="linkedin-icon">
    <path d="M5.372 24H.396V7.976h4.976V24ZM2.882 5.79C1.29 5.79 0 4.474 0 2.883a2.882 2.882 0 1 1 5.763 0c0 1.59-1.29 2.909-2.881 2.909ZM23.995 24H19.03v-7.8c0-1.86-.037-4.243-2.587-4.243-2.587 0-2.983 2.02-2.983 4.109V24H8.49V7.976h4.771v2.186h.07c.664-1.259 2.287-2.587 4.708-2.587 5.036 0 5.961 3.316 5.961 7.623V24h-.005Z" fill="#565656"></path>
  </symbol>
  <symbol fill="none" xmlns="http://www.w3.org/2000/svg" viewBox="0 0 142 12" id="logo">
    <path d="M13.23.13v11.74h-2V4.287c0-.303.017-.63.051-.983L7.594 9.97a.856.856 0 0 1-.802.48h-.32a.856.856 0 0 1-.802-.48L1.94 3.28c.018.179.032.355.043.528.011.173.017.333.017.479v7.583H0V.13h1.713c.101 0 .188.003.261.008a.68.68 0 0 1 .194.04.391.391 0 0 1 .16.106c.051.049.1.114.144.195l3.654 6.52c.095.173.182.351.261.536.085.184.166.373.245.568.079-.2.16-.393.245-.577.084-.19.174-.37.27-.544L10.749.48a.822.822 0 0 1 .144-.195.482.482 0 0 1 .16-.105.787.787 0 0 1 .203-.041 3.61 3.61 0 0 1 .261-.008h1.713ZM30.836 7.437l-1.485-3.905a8.325 8.325 0 0 1-.228-.617 19.524 19.524 0 0 1-.236-.772c-.073.276-.149.536-.228.78a9.72 9.72 0 0 1-.228.625l-1.476 3.89h3.881Zm4.008 4.433h-1.755a.786.786 0 0 1-.481-.138.92.92 0 0 1-.278-.357l-.912-2.395h-5.054l-.911 2.395a.78.78 0 0 1-.262.34.748.748 0 0 1-.48.155h-1.772l4.8-11.74h2.312l4.793 11.74ZM54.83.13v11.74h-1.165c-.18 0-.331-.027-.455-.081a1.116 1.116 0 0 1-.346-.292l-6.37-7.827c.033.357.05.687.05.99v7.21h-2V.13h1.19c.096 0 .177.005.245.016a.464.464 0 0 1 .185.049c.057.022.11.057.16.105.051.044.108.103.17.179l6.395 7.86c-.017-.19-.03-.377-.042-.56a8.46 8.46 0 0 1-.017-.512V.13h2ZM68.263 11.87h-2.279V.13h2.279v11.74ZM81.71 1.867v3.475h4.573v1.746H81.71v4.782h-2.278V.13h7.695v1.737H81.71ZM99.706 1.867v3.256h4.269v1.68h-4.27v3.321h5.418v1.746h-7.696V.13h7.696v1.737h-5.417ZM122.068 2.265a.774.774 0 0 1-.219.252.492.492 0 0 1-.278.073.79.79 0 0 1-.389-.122 7.524 7.524 0 0 0-.489-.284 3.869 3.869 0 0 0-.675-.276 2.797 2.797 0 0 0-.903-.13c-.315 0-.59.038-.827.114-.236.07-.436.17-.599.3-.157.13-.275.287-.354.471a1.45 1.45 0 0 0-.118.593c0 .276.079.506.236.69.163.184.377.34.641.47a6.1 6.1 0 0 0 .903.35c.338.103.684.214 1.038.333.354.113.7.249 1.038.406.337.151.638.346.903.584.264.233.475.52.632.86.164.342.245.756.245 1.243 0 .53-.096 1.029-.287 1.494-.185.46-.461.863-.827 1.21-.36.34-.801.611-1.324.812-.523.195-1.123.292-1.798.292-.388 0-.77-.038-1.147-.114a5.946 5.946 0 0 1-2.059-.796c-.304-.189-.574-.4-.81-.633l.667-1.047a.655.655 0 0 1 .219-.187.549.549 0 0 1 .287-.08c.141 0 .293.056.456.17.163.108.357.23.582.365.225.135.486.26.785.373.303.109.666.163 1.088.163.647 0 1.147-.146 1.502-.439.354-.297.531-.722.531-1.274 0-.309-.081-.56-.244-.755a1.85 1.85 0 0 0-.633-.488 4.663 4.663 0 0 0-.903-.34 30.649 30.649 0 0 1-1.029-.301 9.113 9.113 0 0 1-1.03-.39 3.34 3.34 0 0 1-.902-.592 2.744 2.744 0 0 1-.642-.91c-.157-.368-.236-.82-.236-1.356 0-.427.087-.844.262-1.25.18-.406.438-.766.776-1.08a3.802 3.802 0 0 1 1.249-.755c.495-.19 1.063-.284 1.704-.284.72 0 1.384.108 1.991.325.608.216 1.125.52 1.553.91l-.566 1.03ZM141.793 1.924h-3.679v9.946h-2.27V1.924h-3.679V.13h9.628v1.794Z" fill="#000"></path>
  </symbol>
  <symbol fill="none" xmlns="http://www.w3.org/2000/svg" viewBox="0 0 18 16" id="search">
    <path fill-rule="evenodd" clip-rule="evenodd" d="m13.894 11.072 3.777 3.56a.427.427 0 0 1-.019.613l-.66.623a.487.487 0 0 1-.336.132.487.487 0 0 1-.335-.132l-3.777-3.56a2.342 2.342 0 0 1-.283-.32l-.709-.89a6.868 6.868 0 0 1-4.126 1.362c-3.09.01-5.775-1.999-6.466-4.838-.69-2.838.798-5.75 3.584-7.009C7.33-.647 10.67.081 12.587 2.366c1.917 2.284 1.9 5.515-.043 7.78l.944.614c.148.089.284.194.406.312ZM2.705 6.23c0 2.458 2.114 4.45 4.721 4.45a4.871 4.871 0 0 0 3.339-1.303 4.324 4.324 0 0 0 1.383-3.147c0-2.457-2.114-4.45-4.722-4.45-2.607 0-4.72 1.993-4.72 4.45Z" fill="#000"></path>
  </symbol>
  <symbol fill="none" xmlns="http://www.w3.org/2000/svg" viewBox="0 0 30 24" id="twitter-icon">
    <path d="M26.738 5.981c.018.263.018.525.018.788C26.756 14.775 20.663 24 9.526 24c-3.432 0-6.62-.994-9.3-2.719.487.056.955.075 1.462.075a12.13 12.13 0 0 0 7.518-2.587 6.067 6.067 0 0 1-5.662-4.2c.375.056.75.093 1.144.093a6.41 6.41 0 0 0 1.593-.206 6.057 6.057 0 0 1-4.856-5.944v-.074a6.1 6.1 0 0 0 2.738.768 6.052 6.052 0 0 1-2.7-5.044c0-1.125.3-2.156.825-3.056a17.215 17.215 0 0 0 12.487 6.338 6.839 6.839 0 0 1-.15-1.388c0-3.337 2.7-6.056 6.056-6.056 1.744 0 3.319.731 4.425 1.913A11.923 11.923 0 0 0 28.95.45a6.04 6.04 0 0 1-2.662 3.337 12.14 12.14 0 0 0 3.487-.937 13.016 13.016 0 0 1-3.037 3.131Z" fill="#565656"></path>
  </symbol>
</svg>