<svg xmlns="http://www.w3.org/2000/svg" fill="none" viewBox="0 0 40 36"><path fill="#E1F4F5" d="M36.485 13.322V33c0 1.325-1.148 2.4-2.565 2.4H5.7c-1.416 0-2.565-1.075-2.565-2.4 0-18.604-.002-15.119.006-19.678h33.344Z"/><path fill="#CAEFF2" d="M36.486 13.322v4.544c0 .984-.843 1.799-1.895 1.803H5.028c-1.05-.005-1.893-.82-1.893-1.803 0-1.311-.001-.406.006-4.544h33.344Z"/><path fill="#F4FEFF" d="M26.304 24.675V35.4H13.317V24.675c0-1.325 1.148-2.4 2.565-2.4h7.856c1.417 0 2.566 1.075 2.566 2.4Z"/><path fill="#CAEFF2" d="M38.41 13.322c0 2.4-2.082 4.35-4.65 4.35-2.568 0-4.65-1.948-4.65-4.35 0 2.402-2.082 4.35-4.65 4.35-2.568 0-4.65-1.948-4.65-4.35 0 2.402-2.082 4.35-4.65 4.35-2.567 0-4.65-1.948-4.65-4.35-.003 2.386-2.103 4.35-4.65 4.35-2.542 0-4.645-1.962-4.65-4.35 0-3.781-.01-3.548.029-3.722.038-.17-.228.433 3.806-8.277C5.248.884 5.71.6 6.22.6H33.4c.51 0 .973.284 1.177.723C38.613 10.04 38.343 9.43 38.38 9.6c.04.173.029-.063.029 3.722Z"/><path fill="#CAEFF2" d="M38.41 13.322c0 2.4-2.082 4.35-4.65 4.35-2.568 0-4.65-1.948-4.65-4.35 0 2.402-2.082 4.35-4.65 4.35-2.568 0-4.65-1.948-4.65-4.35 0 2.402-2.082 4.35-4.65 4.35-2.568 0-4.65-1.948-4.65-4.35-.003 2.386-2.103 4.35-4.65 4.35-2.542 0-4.645-1.962-4.65-4.35-.005-3.802-.004-3.574.029-3.722H38.38c.04.173.029-.063.029 3.722Z"/><path fill="#fff" d="M33.052 3.806c-8.143-1.048-16.361.297-23.009 4.982a4.514 4.514 0 0 1-2.597.812H1.24c.039-.17-.228.433 3.806-8.277C5.248.884 5.71.6 6.222.6h27.177c.511 0 .974.284 1.177.723l.178.385c.501 1.081-.454 2.259-1.702 2.098Z"/><path fill="#52C29D" d="M37.127 20.325V33c0 1.654-1.439 3-3.207 3H5.7c-1.768 0-3.206-1.346-3.206-3V20.325c0-.331.287-.6.641-.6.354 0 .641.269.641.6V33c0 .992.863 1.8 1.924 1.8h6.975V24.675c0-1.654 1.439-3 3.207-3h7.856c1.769 0 3.207 1.346 3.207 3V32.4c0 .331-.287.6-.641.6-.354 0-.641-.269-.641-.6v-7.725c0-.992-.864-1.8-1.925-1.8h-7.856c-1.061 0-1.924.808-1.924 1.8V34.8h5.21v-9.45c0-.331.288-.6.642-.6.354 0 .642.269.642.6v9.45H33.92c1.06 0 1.924-.807 1.924-1.8V20.325c0-.331.287-.6.641-.6.355 0 .642.269.642.6ZM4.738 9.6c0 .331.288.6.642.6 34.895 0 33.165.058 33.42-.125a.59.59 0 0 0 .244-.392c.036-.241.266.352-4.215-9.322A.644.644 0 0 0 34.241 0H5.38a.644.644 0 0 0-.589.361l-4.169 9C.55 9.521.57 9.268.57 13.322c.005 2.73 2.379 4.95 5.292 4.95 2.002 0 3.75-1.05 4.648-2.592 2.006 3.449 7.291 3.453 9.301.002 2.009 3.448 7.29 3.449 9.3 0 .897 1.541 2.645 2.59 4.65 2.59 2.917 0 5.29-2.221 5.29-4.95 0-.332-.286-.6-.64-.6-.355 0-.642.268-.642.6 0 2.067-1.798 3.75-4.008 3.75s-4.009-1.683-4.009-3.75c0-.332-.287-.6-.641-.6-.354 0-.642.268-.642.6 0 2.067-1.798 3.75-4.008 3.75s-4.009-1.683-4.009-3.75c0-.332-.287-.6-.64-.6-.355 0-.642.268-.642.6 0 2.067-1.798 3.75-4.009 3.75-2.16 0-4.008-1.625-4.008-3.78 0-.332-.287-.6-.641-.6-.355 0-.642.268-.642.6 0 2.136-1.836 3.78-4.008 3.78-2.207 0-4.005-1.683-4.009-3.75V9.723L5.801 1.2H33.82L37.432 9H5.38c-.355 0-.642.269-.642.6Z"/></svg>