<svg xmlns="http://www.w3.org/2000/svg" fill="none" viewBox="0 0 40 36"><path fill="#D1E7FF" d="M36.875 13.322V33c0 1.325-1.149 2.4-2.565 2.4H6.09c-1.417 0-2.565-1.075-2.565-2.4 0-18.604-.002-15.119.005-19.678h33.345Z"/><path fill="#B9DCFF" d="M36.875 13.322v4.544c0 .984-.843 1.799-1.894 1.803H5.418c-1.051-.005-1.893-.82-1.893-1.803 0-1.311-.001-.406.005-4.544h33.345Z"/><path fill="#E8F3FF" d="M26.694 24.675V35.4H13.706V24.675c0-1.325 1.149-2.4 2.566-2.4h7.856c1.417 0 2.566 1.075 2.566 2.4Z"/><path fill="#B9DCFF" d="M38.8 13.322c0 2.4-2.082 4.35-4.65 4.35-2.569 0-4.65-1.948-4.65-4.35 0 2.402-2.082 4.35-4.65 4.35-2.568 0-4.65-1.948-4.65-4.35 0 2.402-2.082 4.35-4.65 4.35-2.568 0-4.65-1.948-4.65-4.35-.004 2.386-2.103 4.35-4.65 4.35-2.543 0-4.645-1.962-4.65-4.35 0-3.781-.01-3.548.029-3.722.038-.17-.229.433 3.805-8.277C5.638.884 6.1.6 6.611.6h27.177c.511 0 .974.284 1.177.723 4.037 8.716 3.767 8.107 3.806 8.277.04.173.028-.063.028 3.722Z"/><path fill="#B9DCFF" d="M38.8 13.322c0 2.4-2.082 4.35-4.65 4.35-2.569 0-4.65-1.948-4.65-4.35 0 2.402-2.082 4.35-4.65 4.35-2.568 0-4.65-1.948-4.65-4.35 0 2.402-2.082 4.35-4.65 4.35-2.568 0-4.65-1.948-4.65-4.35-.004 2.386-2.103 4.35-4.65 4.35-2.543 0-4.645-1.962-4.65-4.35-.006-3.802-.005-3.574.029-3.722H38.77c.04.173.028-.063.028 3.722Z"/><path fill="#fff" d="M33.442 3.806c-8.143-1.048-16.362.297-23.01 4.982a4.514 4.514 0 0 1-2.596.812H1.629c.038-.17-.229.433 3.805-8.277C5.638.884 6.101.6 6.611.6H33.79c.51 0 .973.284 1.176.723l.18.385c.5 1.081-.455 2.259-1.703 2.098Z"/><path fill="#007FFC" d="M37.516 20.325V33c0 1.654-1.438 3-3.206 3H6.09c-1.768 0-3.207-1.346-3.207-3V20.325c0-.331.287-.6.642-.6.354 0 .641.269.641.6V33c0 .992.863 1.8 1.924 1.8h6.975V24.675c0-1.654 1.438-3 3.207-3h7.856c1.768 0 3.207 1.346 3.207 3V32.4c0 .331-.287.6-.641.6-.355 0-.642-.269-.642-.6v-7.725c0-.992-.863-1.8-1.924-1.8h-7.857c-1.06 0-1.924.808-1.924 1.8V34.8h5.211v-9.45c0-.331.288-.6.642-.6.354 0 .641.269.641.6v9.45H34.31c1.06 0 1.924-.807 1.924-1.8V20.325c0-.331.287-.6.641-.6.354 0 .641.269.641.6ZM5.128 9.6c0 .331.287.6.641.6 34.895 0 33.165.058 33.42-.125a.59.59 0 0 0 .245-.392c.035-.241.266.352-4.215-9.322A.644.644 0 0 0 34.63 0H5.77a.644.644 0 0 0-.59.361l-4.168 9c-.074.16-.053-.093-.053 3.961.005 2.73 2.378 4.95 5.291 4.95 2.003 0 3.75-1.05 4.649-2.592 2.006 3.449 7.29 3.453 9.3.002 2.01 3.448 7.291 3.449 9.3 0 .898 1.541 2.646 2.59 4.65 2.59 2.918 0 5.291-2.221 5.291-4.95 0-.332-.287-.6-.641-.6-.354 0-.641.268-.641.6 0 2.067-1.799 3.75-4.009 3.75-2.21 0-4.008-1.683-4.008-3.75 0-.332-.287-.6-.642-.6-.354 0-.641.268-.641.6 0 2.067-1.798 3.75-4.008 3.75s-4.009-1.683-4.009-3.75c0-.332-.287-.6-.641-.6-.354 0-.642.268-.642.6 0 2.067-1.798 3.75-4.008 3.75-2.161 0-4.009-1.625-4.009-3.78 0-.332-.287-.6-.64-.6-.355 0-.642.268-.642.6 0 2.136-1.836 3.78-4.009 3.78-2.206 0-4.005-1.683-4.008-3.75V9.723L6.19 1.2h28.02L37.821 9H5.77c-.354 0-.641.269-.641.6Z"/></svg>