<svg version="1.1" id="Layer_1" xmlns="http://www.w3.org/2000/svg" xmlns:xlink="http://www.w3.org/1999/xlink" x="0px" y="0px"
	 width="100%" viewBox="0 0 512 512" enable-background="new 0 0 512 512" xml:space="preserve">

<path fill="#3DB270" opacity="1.000000" stroke="none" 
	d="
M39.814720,455.161255 
	C23.641836,434.967194 13.457310,412.414551 10.289540,387.108063 
	C5.474662,348.643280 14.778398,313.709229 39.273476,283.490906 
	C47.168507,273.751190 56.890488,265.492432 65.971870,256.359924 
	C27.481873,227.346146 7.383124,187.870773 9.312181,138.450226 
	C10.728190,102.173470 25.222942,70.951332 51.767406,46.119358 
	C81.929787,17.902874 117.997299,5.413671 159.275131,9.797421 
	C200.519424,14.177613 232.642334,34.520176 257.197815,67.906471 
	C284.749756,31.013741 320.748413,10.101490 366.982025,9.055079 
	C404.742523,8.200440 437.415436,21.360210 464.318115,47.806667 
	C494.585388,77.560661 508.130798,114.174500 504.813416,156.300919 
	C501.509094,198.261536 481.725952,231.613632 447.523224,256.906738 
	C489.001923,288.368561 508.738007,329.838989 504.702759,381.366272 
	C501.822235,418.148560 485.344727,448.861053 457.233765,472.812866 
	C397.542847,523.672302 305.953705,514.386658 257.269135,446.006836 
	C255.174026,448.671997 253.195496,451.283997 251.119019,453.815643 
	C227.592361,482.499634 197.639450,499.991364 160.636505,503.987518 
	C111.998848,509.240112 71.937042,492.247375 39.814720,455.161255 
M262.255432,141.996124 
	C249.417542,145.035446 238.646088,136.312546 235.921021,123.994553 
	C225.483856,76.815849 179.151535,45.118160 131.555679,52.177788 
	C81.276756,59.635384 45.476307,106.952187 52.156830,157.117783 
	C57.324913,195.926117 84.596497,226.370651 122.879814,236.069138 
	C133.489304,238.756882 140.205505,246.917389 140.143295,257.045105 
	C140.080292,267.299255 133.504257,275.227386 122.796303,277.958771 
	C74.405701,290.302277 45.285381,334.642548 52.926167,384.347076 
	C61.240723,438.434601 116.811378,474.530426 169.247406,459.299469 
	C204.735931,448.991211 227.095886,425.386017 236.123901,389.429169 
	C238.890198,378.411469 247.449127,370.942780 257.467560,371.142456 
	C267.687836,371.346222 275.443939,378.209961 278.150421,389.445801 
	C289.704132,437.410370 333.256744,467.714478 382.282928,461.901733 
	C425.271973,456.804749 461.013611,417.826935 462.934631,373.947571 
	C464.936371,328.224365 435.858002,289.047638 391.692078,277.963867 
	C381.133759,275.314209 374.206635,267.095276 374.090698,257.080170 
	C373.976562,247.216248 380.867676,238.630081 391.512634,236.103821 
	C438.283539,225.004166 467.978149,179.910629 462.221771,133.305450 
	C455.903320,82.149338 407.073700,44.353405 356.098663,52.191792 
	C317.758148,58.087376 287.059296,86.424126 278.292999,124.406975 
	C276.263916,133.198502 271.453949,138.947540 262.255432,141.996124 
z"/>
</svg>