<svg xmlns="http://www.w3.org/2000/svg" fill="none" viewBox="0 0 41 36"><path fill="#E1F4F5" d="M35.209 17.004c.796 1.29-.16 2.91-1.75 2.968a43.86 43.86 0 0 0-17.328 4.245l-1.848.997c0 .008-.025-.04 4.473 7.278.413.67.168 1.525-.547 1.912l-1.458.787c-.715.386-1.63.157-2.043-.513l-4.486-7.27-.728.394c-1.431.772-3.26.314-4.087-1.025l-3.365-5.451c-.825-1.339-.335-3.05 1.096-3.823l6.637-3.585c5.073-3.07 9.371-7.135 12.593-11.916.85-1.26 2.827-1.224 3.623.066l2.88 4.666c1.653-.893 3.77-.363 4.724 1.185.955 1.547.388 3.526-1.266 4.42l2.88 4.665Z"/><path fill="#E1F4F5" d="M33.595 7.919c.955 1.547.388 3.526-1.266 4.42L28.87 6.733c1.654-.893 3.77-.363 4.725 1.185Z"/><path fill="#F4FEFF" d="M25.991 2.068a1.854 1.854 0 0 1-.068 2.064c-3.546 5-8.3 9.517-14.114 13.036l-7.777 4.2c-.534.29-.957.69-1.252 1.151l-.738-1.194c-.825-1.338-.335-3.05 1.096-3.822l6.637-3.586c5.073-3.07 9.371-7.134 12.593-11.915.85-1.26 2.827-1.224 3.623.066Z"/><path fill="#CAEFF2" d="m9.775 13.918 6.356 10.3c-1.274.687-5.366 2.896-6.637 3.584-1.431.773-3.26.314-4.087-1.024l-3.365-5.452c-.825-1.339-.335-3.05 1.096-3.823l6.637-3.585Z"/><path fill="#E1F4F5" d="M11.788 17.18c-8.446 4.56-7.886 4.243-8.158 4.442-.514.373-1.262.23-1.588-.297-.825-1.338-.335-3.05 1.096-3.822l6.637-3.585 2.013 3.261Z"/><path fill="#CAEFF2" d="M15.493 27.183c-2.363 1.28-.624.338-4.057 2.191l-1.214-1.966 4.061-2.193 1.21 1.968ZM33.388 11.45c-.274.351-.63.657-1.06.888L28.87 6.734c.43-.232.89-.367 1.353-.414l3.165 5.13Z"/><path fill="#52C29D" d="M33.21 12.521c2.592-1.98 1.696-5.898-1.543-6.71a4.358 4.358 0 0 0-2.527.118l-2.574-4.171C25.52.06 22.921.016 21.806 1.67c-3.166 4.697-7.384 8.693-12.392 11.725a.599.599 0 0 0-.222.818c.027.047 4.29 6.955 4.319 7 .183.298.59.4.907.228a.6.6 0 0 0 .244-.849l-3.999-6.479c4.775-2.986 9.004-6.94 12.267-11.78.583-.867 1.94-.84 2.486.045l9.217 14.935c.547.887-.109 1.998-1.2 2.038a44.547 44.547 0 0 0-17.605 4.312c-.023.01-6.239 3.369-6.667 3.6-1.111.6-2.537.243-3.178-.797l-3.365-5.452c-.642-1.04-.26-2.374.851-2.974l4.05-2.187a.6.6 0 0 0 .243-.85.69.69 0 0 0-.907-.226l-4.05 2.187c-1.745.943-2.346 3.038-1.338 4.671l3.365 5.453c1.008 1.633 3.248 2.194 4.994 1.251l.153-.083 4.154 6.732c.597.967 1.916 1.298 2.95.74l1.458-.787c1.034-.559 1.387-1.793.79-2.76l-2.944-4.771a.69.69 0 0 0-.908-.228.6.6 0 0 0-.243.85l2.944 4.77c.23.372.094.847-.304 1.062l-1.457.787c-.398.215-.905.088-1.135-.285l-4.155-6.731 5.32-2.873a43.143 43.143 0 0 1 17.035-4.17c2.093-.076 3.345-2.206 2.3-3.9l-2.575-4.172Zm-.19-4.292c.655 1.063.42 2.382-.488 3.195l-2.714-4.398c1.19-.327 2.535.123 3.201 1.203Zm6.497-2.763-1.719.929a.69.69 0 0 1-.907-.228.6.6 0 0 1 .243-.849l1.719-.928a.69.69 0 0 1 .907.227.6.6 0 0 1-.243.85Zm-7.392-3.542.42-1.463c.094-.332.458-.528.813-.44.354.09.565.43.47.761l-.42 1.464c-.094.33-.458.528-.813.44-.355-.09-.565-.43-.47-.762Zm8.688 10.178a.66.66 0 0 1-.64.46c-.121 0-.037.014-1.737-.412-.355-.09-.565-.43-.47-.762.095-.331.46-.528.813-.44l1.565.393c.354.089.564.43.47.761Z"/></svg>