<?xml version="1.0" encoding="UTF-8"?>
<svg xmlns="http://www.w3.org/2000/svg" xmlns:xlink="http://www.w3.org/1999/xlink" width="0" height="0">

<symbol id="linkedin-icon" width="25" height="24" viewBox="0 0 25 24" fill="none">
<path d="M5.87177 24H0.895949V7.97643H5.87177V24ZM3.38118 5.79066C1.79008 5.79066 0.499512 4.47278 0.499512 2.88167C0.499512 2.1174 0.803116 1.38444 1.34353 0.844022C1.88395 0.303604 2.61692 0 3.38118 0C4.14545 0 4.87841 0.303604 5.41883 0.844022C5.95925 1.38444 6.26285 2.1174 6.26285 2.88167C6.26285 4.47278 4.97175 5.79066 3.38118 5.79066ZM24.4947 24H19.5296V16.1998C19.5296 14.3409 19.4921 11.9569 16.9426 11.9569C14.3555 11.9569 13.9591 13.9766 13.9591 16.0659V24H8.98863V7.97643H13.7609V10.1622H13.8305C14.4948 8.90323 16.1175 7.57463 18.5385 7.57463C23.5743 7.57463 24.5 10.8908 24.5 15.198V24H24.4947Z" fill="#565656"/>
</symbol>

<symbol id="facebook-icon" width="13" height="24" viewBox="0 0 13 24" fill="none">
<path d="M12.084 13.5L12.7505 9.15656H8.58289V6.33797C8.58289 5.14969 9.16508 3.99141 11.0316 3.99141H12.9263V0.293438C12.9263 0.293438 11.207 0 9.56305 0C6.13086 0 3.88742 2.08031 3.88742 5.84625V9.15656H0.0722656V13.5H3.88742V24H8.58289V13.5H12.084Z" fill="#565656"/>
</symbol>

<symbol id="instagram-icon" width="25" height="24" viewBox="0 0 25 24" fill="none">
<path d="M12.5024 5.8467C9.09642 5.8467 6.34913 8.594 6.34913 12C6.34913 15.406 9.09642 18.1533 12.5024 18.1533C15.9084 18.1533 18.6557 15.406 18.6557 12C18.6557 8.594 15.9084 5.8467 12.5024 5.8467ZM12.5024 16.0004C10.3014 16.0004 8.50198 14.2064 8.50198 12C8.50198 9.7936 10.296 7.99955 12.5024 7.99955C14.7088 7.99955 16.5029 9.7936 16.5029 12C16.5029 14.2064 14.7035 16.0004 12.5024 16.0004ZM20.3427 5.595C20.3427 6.39295 19.7 7.03024 18.9074 7.03024C18.1095 7.03024 17.4722 6.38759 17.4722 5.595C17.4722 4.80241 18.1148 4.15977 18.9074 4.15977C19.7 4.15977 20.3427 4.80241 20.3427 5.595ZM24.4181 7.05166C24.327 5.12909 23.8879 3.42608 22.4794 2.02298C21.0763 0.619882 19.3733 0.180743 17.4508 0.0843468C15.4693 -0.0281156 9.53021 -0.0281156 7.54873 0.0843468C5.63151 0.175388 3.92851 0.614526 2.52005 2.01763C1.1116 3.42073 0.677813 5.12373 0.581417 7.0463C0.468955 9.02778 0.468955 14.9669 0.581417 16.9483C0.672458 18.8709 1.1116 20.5739 2.52005 21.977C3.92851 23.3801 5.62616 23.8193 7.54873 23.9157C9.53021 24.0281 15.4693 24.0281 17.4508 23.9157C19.3733 23.8246 21.0763 23.3855 22.4794 21.977C23.8825 20.5739 24.3217 18.8709 24.4181 16.9483C24.5305 14.9669 24.5305 9.03314 24.4181 7.05166ZM21.8582 19.0744C21.4405 20.1241 20.6318 20.9327 19.5768 21.3558C17.997 21.9824 14.2483 21.8378 12.5024 21.8378C10.7566 21.8378 7.00248 21.977 5.42801 21.3558C4.37836 20.9381 3.5697 20.1294 3.14663 19.0744C2.52005 17.4946 2.66465 13.7458 2.66465 12C2.66465 10.2542 2.52541 6.50006 3.14663 4.92558C3.56435 3.87593 4.373 3.06728 5.42801 2.6442C7.00784 2.01763 10.7566 2.16222 12.5024 2.16222C14.2483 2.16222 18.0024 2.02298 19.5768 2.6442C20.6265 3.06192 21.4352 3.87058 21.8582 4.92558C22.4848 6.50541 22.3402 10.2542 22.3402 12C22.3402 13.7458 22.4848 17.4999 21.8582 19.0744Z" fill="#565656"/>
</symbol>

<symbol id="twitter-icon" width="31" height="24" viewBox="0 0 31 24" fill="none">
<path d="M27.2371 5.98123C27.2559 6.24372 27.2559 6.50626 27.2559 6.76875C27.2559 14.775 21.1622 24 10.0246 24C6.59335 24 3.40587 23.0062 0.724609 21.2813C1.21213 21.3375 1.68083 21.3563 2.18711 21.3563C5.01831 21.3563 7.6246 20.4 9.70586 18.7688C7.04335 18.7125 4.8121 16.9688 4.04333 14.5687C4.41836 14.625 4.79334 14.6625 5.18713 14.6625C5.73086 14.6625 6.27465 14.5874 6.78087 14.4563C4.00588 13.8937 1.92456 11.4562 1.92456 8.51249V8.43752C2.73078 8.88752 3.66836 9.16877 4.66204 9.20622C3.03078 8.1187 1.96207 6.26247 1.96207 4.16246C1.96207 3.03748 2.26202 2.00623 2.78705 1.10622C5.76832 4.78122 10.2496 7.18118 15.2745 7.44372C15.1808 6.99372 15.1245 6.52502 15.1245 6.05626C15.1245 2.71872 17.8246 0 21.1808 0C22.9245 0 24.4995 0.731248 25.6058 1.9125C26.9745 1.65001 28.287 1.14374 29.4496 0.450003C28.9995 1.85628 28.0433 3.03754 26.7871 3.78748C28.0058 3.6563 29.1871 3.31872 30.2745 2.85002C29.4497 4.04997 28.4184 5.11868 27.2371 5.98123Z" fill="#565656"/>
</symbol>

<symbol id="Logo" width="145" height="14" viewBox="0 0 145 14" fill="none">
<path d="M6.274 8.08187C6.37194 8.26951 6.46124 8.46594 6.5419 8.67118C6.62832 8.87055 6.71186 9.07285 6.79251 9.27808C6.87317 9.06698 6.95671 8.85882 7.04313 8.65359C7.12955 8.44835 7.22173 8.25192 7.31967 8.06428L11.0184 1.01894C11.0645 0.930987 11.1106 0.860622 11.1567 0.807848C11.2085 0.755074 11.2632 0.716959 11.3209 0.693504C11.3842 0.670049 11.4534 0.655389 11.5283 0.649526C11.6032 0.643662 11.6925 0.64073 11.7962 0.64073H13.5505V13.3593H11.5023V5.14411C11.5023 4.99165 11.5052 4.82454 11.511 4.64276C11.5225 4.46098 11.5369 4.27627 11.5542 4.08863L7.77769 11.3011C7.69127 11.4653 7.57892 11.5943 7.44065 11.6881C7.30238 11.776 7.14107 11.82 6.95671 11.82H6.63696C6.4526 11.82 6.29128 11.776 6.15301 11.6881C6.01474 11.5943 5.9024 11.4653 5.81598 11.3011L1.98763 4.06225C2.01068 4.25575 2.02508 4.44632 2.03084 4.63396C2.04236 4.81574 2.04812 4.98579 2.04812 5.14411V13.3593H0V0.64073H1.7543C1.858 0.64073 1.9473 0.643662 2.0222 0.649526C2.09709 0.655389 2.16335 0.670049 2.22096 0.693504C2.28434 0.716959 2.34195 0.755074 2.3938 0.807848C2.44565 0.860622 2.49462 0.930987 2.54071 1.01894L6.274 8.08187Z" fill="black"/>
<path d="M35.6942 13.3593H33.8967C33.695 13.3593 33.528 13.3094 33.3954 13.2097C33.2687 13.1042 33.1765 12.9752 33.1189 12.8227L32.1856 10.228H27.0091L26.0758 12.8227C26.0297 12.9576 25.9375 13.0807 25.7992 13.1922C25.6667 13.3036 25.5025 13.3593 25.3066 13.3593H23.5005L28.4091 0.64073H30.7856L35.6942 13.3593ZM27.6054 8.55683H31.5893L30.0683 4.32612C29.9992 4.13848 29.9214 3.91858 29.835 3.66644C29.7543 3.40843 29.6737 3.1299 29.593 2.83085C29.5124 3.1299 29.4317 3.40843 29.351 3.66644C29.2761 3.92445 29.2013 4.1502 29.1264 4.34371L27.6054 8.55683Z" fill="black"/>
<path d="M46.8415 0.64073C46.9452 0.64073 47.0316 0.646594 47.1008 0.658321C47.1699 0.664185 47.2304 0.681777 47.2823 0.711095C47.3399 0.734551 47.3946 0.772666 47.4465 0.825439C47.4983 0.87235 47.5559 0.936851 47.6193 1.01894L54.1785 9.52436C54.1554 9.31913 54.1381 9.11976 54.1266 8.92625C54.1209 8.72688 54.118 8.54217 54.118 8.37212V0.64073H56.1661V13.3593H54.9649C54.7805 13.3593 54.6279 13.33 54.5069 13.2713C54.3859 13.2127 54.2678 13.1071 54.1525 12.9547L47.6193 4.48444C47.6366 4.67208 47.6481 4.85972 47.6539 5.04736C47.6654 5.22914 47.6711 5.39626 47.6711 5.54871V13.3593H45.623V0.64073H46.8415Z" fill="black"/>
<path d="M69.9475 13.3593H67.6142V0.64073H69.9475V13.3593Z" fill="black"/>
<path d="M89.2872 0.64073V2.523H83.7477V6.28755H88.423V8.17862H83.7477V13.3593H81.4058V0.64073H89.2872Z" fill="black"/>
<path d="M107.634 0.64073V2.523H102.095V6.05007H106.459V7.87077H102.095V11.4682H107.634V13.3593H99.7529V0.64073H107.634Z" fill="black"/>
<path d="M124.983 2.95399C124.92 3.08299 124.845 3.17388 124.758 3.22666C124.678 3.27943 124.58 3.30582 124.465 3.30582C124.349 3.30582 124.22 3.26184 124.076 3.17388C123.932 3.08006 123.762 2.97745 123.566 2.86603C123.37 2.75462 123.14 2.65494 122.874 2.56698C122.615 2.47316 122.307 2.42625 121.95 2.42625C121.627 2.42625 121.345 2.4673 121.103 2.54939C120.867 2.62562 120.665 2.7341 120.498 2.87483C120.337 3.01556 120.216 3.18561 120.135 3.38498C120.054 3.57848 120.014 3.79251 120.014 4.02706C120.014 4.32612 120.095 4.57533 120.256 4.77469C120.423 4.97406 120.642 5.14411 120.913 5.28484C121.184 5.42557 121.492 5.55165 121.837 5.66306C122.183 5.77447 122.535 5.89468 122.892 6.02368C123.255 6.14682 123.609 6.29341 123.955 6.46346C124.3 6.62765 124.609 6.83875 124.879 7.09675C125.15 7.34889 125.366 7.65968 125.528 8.02909C125.695 8.39851 125.778 8.84709 125.778 9.37483C125.778 9.94948 125.68 10.4889 125.484 10.9932C125.294 11.4917 125.012 11.9285 124.637 12.3038C124.269 12.6732 123.816 12.9664 123.281 13.1834C122.745 13.3945 122.131 13.5 121.44 13.5C121.042 13.5 120.651 13.459 120.265 13.3769C119.879 13.3006 119.507 13.1892 119.15 13.0426C118.798 12.896 118.467 12.7201 118.156 12.5149C117.851 12.3097 117.577 12.081 117.335 11.8288L118.009 10.6942C118.072 10.6121 118.147 10.5447 118.234 10.4919C118.326 10.4332 118.427 10.4039 118.536 10.4039C118.68 10.4039 118.836 10.4655 119.003 10.5886C119.17 10.7059 119.366 10.8378 119.591 10.9844C119.821 11.131 120.089 11.2659 120.394 11.389C120.705 11.5063 121.077 11.565 121.509 11.565C122.172 11.565 122.684 11.4066 123.047 11.09C123.41 10.7675 123.592 10.3072 123.592 9.70907C123.592 9.37483 123.508 9.10216 123.341 8.89107C123.18 8.67997 122.964 8.50406 122.693 8.36333C122.422 8.21673 122.114 8.09359 121.768 7.99391C121.423 7.89423 121.071 7.78575 120.714 7.66847C120.357 7.55119 120.005 7.41046 119.66 7.24628C119.314 7.08209 119.006 6.86806 118.735 6.60419C118.464 6.34032 118.245 6.01195 118.078 5.61908C117.917 5.22034 117.836 4.73072 117.836 4.1502C117.836 3.68696 117.926 3.23545 118.104 2.79567C118.289 2.35589 118.554 1.96594 118.899 1.62584C119.251 1.28575 119.68 1.01308 120.187 0.807848C120.694 0.602616 121.273 0.5 121.924 0.5C122.661 0.5 123.341 0.617275 123.963 0.851826C124.586 1.08638 125.116 1.41475 125.553 1.83694L124.983 2.95399Z" fill="black"/>
<path d="M145 0.64073V2.58457H141.241V13.3593H138.916V2.58457H135.14V0.64073H145Z" fill="black"/>

</symbol>

<symbol id="arrow" width="24" height="13" viewBox="0 0 24 13" fill="none">
<path d="M23.5303 7.03033C23.8232 6.73744 23.8232 6.26257 23.5303 5.96967L18.7574 1.1967C18.4645 0.903807 17.9896 0.903807 17.6967 1.1967C17.4038 1.48959 17.4038 1.96447 17.6967 2.25736L21.9393 6.5L17.6967 10.7426C17.4038 11.0355 17.4038 11.5104 17.6967 11.8033C17.9896 12.0962 18.4645 12.0962 18.7574 11.8033L23.5303 7.03033ZM-6.55671e-08 7.25L23 7.25L23 5.75L6.55671e-08 5.75L-6.55671e-08 7.25Z" fill="#7B7B7B"/>
</symbol>

</svg>
