<svg xmlns="http://www.w3.org/2000/svg">
<symbol id="icon-building-blue" viewBox="0 0 40 36"><path fill="#D1E7FF" d="M36.777 13.322V33c0 1.325-1.15 2.4-2.566 2.4H5.991c-1.416 0-2.565-1.075-2.565-2.4 0-18.604-.001-15.119.006-19.678h33.345Z"/><path fill="#B9DCFF" d="M36.777 13.322v4.544c0 .984-.843 1.799-1.894 1.803H5.319c-1.05-.005-1.893-.82-1.893-1.803 0-1.311 0-.406.006-4.544h33.345Z"/><path fill="#E8F3FF" d="M26.595 24.675V35.4H13.608V24.675c0-1.325 1.149-2.4 2.565-2.4h7.857c1.416 0 2.565 1.075 2.565 2.4Z"/><path fill="#B9DCFF" d="M38.7 13.322c0 2.4-2.08 4.35-4.65 4.35-2.567 0-4.649-1.948-4.649-4.35 0 2.402-2.082 4.35-4.65 4.35-2.568 0-4.65-1.948-4.65-4.35 0 2.402-2.081 4.35-4.65 4.35-2.567 0-4.65-1.948-4.65-4.35-.003 2.386-2.103 4.35-4.649 4.35-2.543 0-4.646-1.962-4.65-4.35 0-3.781-.01-3.548.028-3.722.039-.17-.228.433 3.806-8.277C5.54.884 6.002.6 6.513.6H33.69c.51 0 .973.284 1.177.723 4.037 8.716 3.767 8.107 3.806 8.277.039.173.028-.063.028 3.722Z"/><path fill="#B9DCFF" d="M38.7 13.322c0 2.4-2.08 4.35-4.65 4.35-2.567 0-4.649-1.948-4.649-4.35 0 2.402-2.082 4.35-4.65 4.35-2.568 0-4.65-1.948-4.65-4.35 0 2.402-2.082 4.35-4.65 4.35-2.567 0-4.65-1.948-4.65-4.35-.003 2.386-2.103 4.35-4.649 4.35-2.543 0-4.646-1.962-4.65-4.35-.006-3.802-.005-3.574.028-3.722h37.143c.039.173.028-.063.028 3.722Z"/><path fill="#fff" d="M33.344 3.806c-8.144-1.048-16.362.297-23.01 4.982a4.514 4.514 0 0 1-2.597.812H1.53c.039-.17-.228.433 3.806-8.277C5.54.884 6.002.6 6.513.6H33.69c.511 0 .974.284 1.177.723l.179.385c.5 1.081-.455 2.259-1.702 2.098Z"/><path fill="#007FFC" d="M37.418 20.325V33c0 1.654-1.438 3-3.207 3H5.991c-1.768 0-3.206-1.346-3.206-3V20.325c0-.331.287-.6.641-.6.354 0 .642.269.642.6V33c0 .992.863 1.8 1.924 1.8h6.974V24.675c0-1.654 1.439-3 3.207-3h7.857c1.768 0 3.206 1.346 3.206 3V32.4c0 .331-.287.6-.64.6-.355 0-.642-.269-.642-.6v-7.725c0-.992-.863-1.8-1.924-1.8h-7.857c-1.06 0-1.924.808-1.924 1.8V34.8h5.211v-9.45c0-.331.287-.6.641-.6.355 0 .642.269.642.6v9.45H34.21c1.061 0 1.924-.807 1.924-1.8V20.325c0-.331.288-.6.642-.6.354 0 .641.269.641.6ZM5.03 9.6c0 .331.287.6.641.6 34.895 0 33.165.058 33.42-.125a.59.59 0 0 0 .244-.392c.036-.241.266.352-4.215-9.322A.644.644 0 0 0 34.532 0H5.67a.644.644 0 0 0-.589.361l-4.168 9C.84 9.521.86 9.268.86 13.322c.004 2.73 2.378 4.95 5.29 4.95 2.003 0 3.751-1.05 4.65-2.592 2.006 3.449 7.29 3.453 9.3.002 2.009 3.448 7.291 3.449 9.3 0 .898 1.541 2.645 2.59 4.65 2.59 2.917 0 5.291-2.221 5.291-4.95 0-.332-.287-.6-.641-.6-.355 0-.642.268-.642.6 0 2.067-1.798 3.75-4.008 3.75s-4.009-1.683-4.009-3.75c0-.332-.287-.6-.641-.6-.354 0-.641.268-.641.6 0 2.067-1.799 3.75-4.009 3.75-2.21 0-4.008-1.683-4.008-3.75 0-.332-.287-.6-.642-.6-.354 0-.641.268-.641.6 0 2.067-1.798 3.75-4.009 3.75-2.16 0-4.008-1.625-4.008-3.78 0-.332-.287-.6-.641-.6-.354 0-.642.268-.642.6 0 2.136-1.835 3.78-4.008 3.78-2.207 0-4.005-1.683-4.009-3.75V9.723L6.092 1.2h28.019L37.724 9H5.67c-.354 0-.641.269-.641.6Z"/>
</symbol>
<symbol id="icon-building-green" viewBox="0 0 40 36"><path fill="#E1F4F5" d="M36.777 13.322V33c0 1.325-1.15 2.4-2.566 2.4H5.991c-1.416 0-2.565-1.075-2.565-2.4 0-18.604-.001-15.119.006-19.678h33.345Z"/><path fill="#CAEFF2" d="M36.777 13.322v4.544c0 .984-.843 1.799-1.894 1.803H5.319c-1.05-.005-1.893-.82-1.893-1.803 0-1.311 0-.406.006-4.544h33.345Z"/><path fill="#F4FEFF" d="M26.595 24.675V35.4H13.608V24.675c0-1.325 1.149-2.4 2.565-2.4h7.857c1.416 0 2.565 1.075 2.565 2.4Z"/><path fill="#CAEFF2" d="M38.7 13.322c0 2.4-2.08 4.35-4.65 4.35-2.567 0-4.649-1.948-4.649-4.35 0 2.402-2.082 4.35-4.65 4.35-2.568 0-4.65-1.948-4.65-4.35 0 2.402-2.081 4.35-4.65 4.35-2.567 0-4.65-1.948-4.65-4.35-.003 2.386-2.103 4.35-4.649 4.35-2.543 0-4.646-1.962-4.65-4.35 0-3.781-.01-3.548.028-3.722.039-.17-.228.433 3.806-8.277C5.54.884 6.002.6 6.513.6H33.69c.51 0 .973.284 1.177.723 4.037 8.716 3.767 8.107 3.806 8.277.039.173.028-.063.028 3.722Z"/><path fill="#CAEFF2" d="M38.7 13.322c0 2.4-2.08 4.35-4.65 4.35-2.567 0-4.649-1.948-4.649-4.35 0 2.402-2.082 4.35-4.65 4.35-2.568 0-4.65-1.948-4.65-4.35 0 2.402-2.082 4.35-4.65 4.35-2.567 0-4.65-1.948-4.65-4.35-.003 2.386-2.103 4.35-4.649 4.35-2.543 0-4.646-1.962-4.65-4.35-.006-3.802-.005-3.574.028-3.722h37.143c.039.173.028-.063.028 3.722Z"/><path fill="#fff" d="M33.344 3.806c-8.144-1.048-16.362.297-23.01 4.982a4.514 4.514 0 0 1-2.597.812H1.53c.039-.17-.228.433 3.806-8.277C5.54.884 6.002.6 6.513.6H33.69c.511 0 .974.284 1.177.723l.179.385c.5 1.081-.455 2.259-1.702 2.098Z"/><path fill="#52C29D" d="M37.418 20.325V33c0 1.654-1.438 3-3.207 3H5.991c-1.768 0-3.206-1.346-3.206-3V20.325c0-.331.287-.6.641-.6.354 0 .642.269.642.6V33c0 .992.863 1.8 1.924 1.8h6.974V24.675c0-1.654 1.439-3 3.207-3h7.857c1.768 0 3.206 1.346 3.206 3V32.4c0 .331-.287.6-.64.6-.355 0-.642-.269-.642-.6v-7.725c0-.992-.863-1.8-1.924-1.8h-7.857c-1.06 0-1.924.808-1.924 1.8V34.8h5.211v-9.45c0-.331.287-.6.641-.6.355 0 .642.269.642.6v9.45H34.21c1.061 0 1.924-.807 1.924-1.8V20.325c0-.331.288-.6.642-.6.354 0 .641.269.641.6ZM5.03 9.6c0 .331.287.6.641.6 34.895 0 33.165.058 33.42-.125a.59.59 0 0 0 .244-.392c.036-.241.266.352-4.215-9.322A.644.644 0 0 0 34.532 0H5.67a.644.644 0 0 0-.589.361l-4.168 9C.84 9.521.86 9.268.86 13.322c.004 2.73 2.378 4.95 5.29 4.95 2.003 0 3.751-1.05 4.65-2.592 2.006 3.449 7.29 3.453 9.3.002 2.009 3.448 7.291 3.449 9.3 0 .898 1.541 2.645 2.59 4.65 2.59 2.917 0 5.291-2.221 5.291-4.95 0-.332-.287-.6-.641-.6-.355 0-.642.268-.642.6 0 2.067-1.798 3.75-4.008 3.75s-4.009-1.683-4.009-3.75c0-.332-.287-.6-.641-.6-.354 0-.641.268-.641.6 0 2.067-1.799 3.75-4.009 3.75-2.21 0-4.008-1.683-4.008-3.75 0-.332-.287-.6-.642-.6-.354 0-.641.268-.641.6 0 2.067-1.798 3.75-4.009 3.75-2.16 0-4.008-1.625-4.008-3.78 0-.332-.287-.6-.641-.6-.354 0-.642.268-.642.6 0 2.136-1.835 3.78-4.008 3.78-2.207 0-4.005-1.683-4.009-3.75V9.723L6.092 1.2h28.019L37.724 9H5.67c-.354 0-.641.269-.641.6Z"/>
</symbol>
<symbol id="icon-megaphone-blue" viewBox="0 0 40 36"><path fill="#D1E7FF" d="M34.23 17.004c.797 1.29-.158 2.91-1.75 2.968a43.86 43.86 0 0 0-17.327 4.245l-1.848.997c0 .008-.025-.04 4.473 7.278.412.67.167 1.525-.548 1.912l-1.457.787c-.715.386-1.63.157-2.043-.513l-4.486-7.27-.729.394c-1.43.772-3.26.314-4.086-1.025l-3.365-5.451C.24 19.987.73 18.276 2.16 17.503l6.637-3.585c5.072-3.07 9.37-7.135 12.593-11.916.85-1.26 2.827-1.224 3.623.066l2.879 4.666c1.654-.893 3.77-.363 4.725 1.185.955 1.547.388 3.526-1.266 4.42l2.88 4.665Z"/><path fill="#D1E7FF" d="M32.617 7.919c.955 1.547.388 3.526-1.266 4.42l-3.46-5.605c1.655-.893 3.77-.363 4.726 1.185Z"/><path fill="#E8F3FF" d="M25.013 2.068a1.854 1.854 0 0 1-.068 2.064c-3.547 5-8.3 9.517-14.114 13.036l-7.777 4.2c-.534.29-.957.69-1.252 1.151l-.738-1.194C.24 19.987.73 18.275 2.16 17.503l6.637-3.586c5.072-3.07 9.37-7.134 12.593-11.915.85-1.26 2.826-1.224 3.623.066Z"/><path fill="#B9DCFF" d="m8.797 13.918 6.356 10.3c-1.274.687-5.366 2.896-6.638 3.584-1.43.773-3.26.314-4.086-1.024l-3.365-5.452C.24 19.987.73 18.276 2.16 17.503l6.637-3.585Z"/><path fill="#D1E7FF" d="M10.81 17.18c-8.446 4.56-7.886 4.243-8.159 4.442-.513.373-1.262.23-1.587-.297-.825-1.338-.335-3.05 1.095-3.822l6.638-3.585 2.013 3.261Z"/><path fill="#B9DCFF" d="M14.515 27.183c-2.363 1.28-.624.338-4.057 2.191l-1.214-1.966 4.061-2.193 1.21 1.968ZM32.41 11.45c-.274.351-.63.657-1.06.888l-3.458-5.604c.43-.232.89-.367 1.353-.414l3.165 5.13Z"/><path fill="#007FFC" d="M32.231 12.521c2.593-1.98 1.697-5.898-1.543-6.71a4.358 4.358 0 0 0-2.526.118l-2.574-4.171C24.541.06 21.943.016 20.828 1.67c-3.167 4.697-7.384 8.693-12.392 11.725a.599.599 0 0 0-.222.818c.027.047 4.29 6.955 4.319 7 .183.298.59.4.907.228a.6.6 0 0 0 .243-.849l-3.998-6.479c4.775-2.986 9.004-6.94 12.266-11.78.584-.867 1.94-.84 2.486.045l9.218 14.935c.547.887-.11 1.998-1.2 2.038a44.547 44.547 0 0 0-17.605 4.312c-.023.01-6.24 3.369-6.667 3.6-1.111.6-2.537.243-3.179-.797L1.64 21.015c-.642-1.04-.26-2.374.851-2.974l4.05-2.187a.6.6 0 0 0 .243-.85.69.69 0 0 0-.907-.226l-4.05 2.187C.08 17.908-.52 20.003.489 21.636l3.365 5.453c1.008 1.633 3.248 2.194 4.993 1.251l.154-.083 4.154 6.732c.597.967 1.916 1.298 2.95.74l1.457-.787c1.034-.559 1.388-1.793.79-2.76L15.41 27.41a.69.69 0 0 0-.908-.228.6.6 0 0 0-.243.85l2.944 4.77c.23.372.094.847-.304 1.062l-1.457.787c-.398.215-.906.088-1.135-.285l-4.155-6.731 5.32-2.873a43.143 43.143 0 0 1 17.035-4.17c2.093-.076 3.345-2.206 2.3-3.9L32.23 12.52Zm-.19-4.292c.656 1.063.42 2.382-.487 3.195L28.84 7.026c1.19-.327 2.535.123 3.201 1.203Zm6.498-2.763-1.72.929a.69.69 0 0 1-.907-.228.6.6 0 0 1 .244-.849l1.718-.928a.69.69 0 0 1 .908.227.6.6 0 0 1-.243.85Zm-7.392-3.542.419-1.463c.095-.332.459-.528.814-.44.354.09.564.43.47.761l-.42 1.464c-.095.33-.458.528-.814.44-.354-.09-.564-.43-.47-.762Zm8.688 10.178a.66.66 0 0 1-.641.46c-.12 0-.036.014-1.737-.412-.354-.09-.564-.43-.47-.762.096-.331.46-.528.814-.44l1.564.393c.355.089.565.43.47.761Z"/>
</symbol>
<symbol id="icon-megaphone-green" viewBox="0 0 40 36"><path fill="#E1F4F5" d="M34.23 17.004c.797 1.29-.158 2.91-1.75 2.968a43.86 43.86 0 0 0-17.327 4.245l-1.848.997c0 .008-.025-.04 4.473 7.278.412.67.167 1.525-.548 1.912l-1.457.787c-.715.386-1.63.157-2.043-.513l-4.486-7.27-.729.394c-1.43.772-3.26.314-4.086-1.025l-3.365-5.451C.24 19.987.73 18.276 2.16 17.503l6.637-3.585c5.072-3.07 9.37-7.135 12.593-11.916.85-1.26 2.827-1.224 3.623.066l2.879 4.666c1.654-.893 3.77-.363 4.725 1.185.955 1.547.388 3.526-1.266 4.42l2.88 4.665Z"/><path fill="#E1F4F5" d="M32.617 7.919c.955 1.547.388 3.526-1.266 4.42l-3.46-5.605c1.655-.893 3.77-.363 4.726 1.185Z"/><path fill="#F4FEFF" d="M25.013 2.068a1.854 1.854 0 0 1-.068 2.064c-3.547 5-8.3 9.517-14.114 13.036l-7.777 4.2c-.534.29-.957.69-1.252 1.151l-.738-1.194C.24 19.987.73 18.275 2.16 17.503l6.637-3.586c5.072-3.07 9.37-7.134 12.593-11.915.85-1.26 2.826-1.224 3.623.066Z"/><path fill="#CAEFF2" d="m8.797 13.918 6.356 10.3c-1.274.687-5.366 2.896-6.638 3.584-1.43.773-3.26.314-4.086-1.024l-3.365-5.452C.24 19.987.73 18.276 2.16 17.503l6.637-3.585Z"/><path fill="#E1F4F5" d="M10.81 17.18c-8.446 4.56-7.886 4.243-8.159 4.442-.513.373-1.262.23-1.587-.297-.825-1.338-.335-3.05 1.095-3.822l6.638-3.585 2.013 3.261Z"/><path fill="#CAEFF2" d="M14.515 27.183c-2.363 1.28-.624.338-4.057 2.191l-1.214-1.966 4.061-2.193 1.21 1.968ZM32.41 11.45c-.274.351-.63.657-1.06.888l-3.458-5.604c.43-.232.89-.367 1.353-.414l3.165 5.13Z"/><path fill="#52C29D" d="M32.231 12.521c2.593-1.98 1.697-5.898-1.543-6.71a4.358 4.358 0 0 0-2.526.118l-2.574-4.171C24.541.06 21.943.016 20.828 1.67c-3.167 4.697-7.384 8.693-12.392 11.725a.599.599 0 0 0-.222.818c.027.047 4.29 6.955 4.319 7 .183.298.59.4.907.228a.6.6 0 0 0 .243-.849l-3.998-6.479c4.775-2.986 9.004-6.94 12.266-11.78.584-.867 1.94-.84 2.486.045l9.218 14.935c.547.887-.11 1.998-1.2 2.038a44.547 44.547 0 0 0-17.605 4.312c-.023.01-6.24 3.369-6.667 3.6-1.111.6-2.537.243-3.179-.797L1.64 21.015c-.642-1.04-.26-2.374.851-2.974l4.05-2.187a.6.6 0 0 0 .243-.85.69.69 0 0 0-.907-.226l-4.05 2.187C.08 17.908-.52 20.003.489 21.636l3.365 5.453c1.008 1.633 3.248 2.194 4.993 1.251l.154-.083 4.154 6.732c.597.967 1.916 1.298 2.95.74l1.457-.787c1.034-.559 1.388-1.793.79-2.76L15.41 27.41a.69.69 0 0 0-.908-.228.6.6 0 0 0-.243.85l2.944 4.77c.23.372.094.847-.304 1.062l-1.457.787c-.398.215-.906.088-1.135-.285l-4.155-6.731 5.32-2.873a43.143 43.143 0 0 1 17.035-4.17c2.093-.076 3.345-2.206 2.3-3.9L32.23 12.52Zm-.19-4.292c.656 1.063.42 2.382-.487 3.195L28.84 7.026c1.19-.327 2.535.123 3.201 1.203Zm6.498-2.763-1.72.929a.69.69 0 0 1-.907-.228.6.6 0 0 1 .244-.849l1.718-.928a.69.69 0 0 1 .908.227.6.6 0 0 1-.243.85Zm-7.392-3.542.419-1.463c.095-.332.459-.528.814-.44.354.09.564.43.47.761l-.42 1.464c-.095.33-.458.528-.814.44-.354-.09-.564-.43-.47-.762Zm8.688 10.178a.66.66 0 0 1-.641.46c-.12 0-.036.014-1.737-.412-.354-.09-.564-.43-.47-.762.096-.331.46-.528.814-.44l1.564.393c.355.089.565.43.47.761Z"/>
</symbol>
<symbol id="icon-phone-blue" viewBox="0 0 25 36"><path fill="#D1E7FF" d="M21.192.6c1.417 0 2.566 1.075 2.566 2.4v30c0 1.325-1.149 2.4-2.566 2.4H3.555C2.14 35.4.99 34.325.99 33V3C.99 1.675 2.139.6 3.555.6h17.637Z"/><path fill="#B9DCFF" d="M16.408 13.479c.614 0 1.129.433 1.195 1.004l.858 7.37c.078.666-.48 1.247-1.195 1.247H7.482c-.716 0-1.273-.581-1.196-1.247l.858-7.37c.067-.571.581-1.004 1.196-1.004h8.068Z"/><path fill="#E8F3FF" d="M21.314.603c2.063.09 1.953 2.997-.112 2.997h-8.347c-4.782 0-8.659 3.627-8.659 8.1v23.7h-.64C2.137 35.4.99 34.326.99 33V3C.99 1.675 2.138.6 3.555.6 3.671.6 21.22.6 21.314.603Z"/><path fill="#B9DCFF" d="M23.758 30.15V33c0 1.325-1.149 2.4-2.566 2.4H3.555C2.14 35.4.99 34.325.99 33v-2.85h22.768Z"/><path fill="#D1E7FF" d="M4.196 30.15v2.859C4.196 34.964.99 35.063.99 33v-2.85h3.206ZM16.408 15.729c-3.885 0-7.06 2.736-7.47 6.26-.074.632-.644 1.111-1.324 1.111h-.132c-.716 0-1.273-.581-1.196-1.247l.858-7.37c.067-.571.581-1.004 1.196-1.004h8.068c.613 0 1.129.432 1.195 1.003.078.667-.48 1.247-1.195 1.247Z"/><path fill="#007FFC" d="M21.192 0H3.555C1.787 0 .348 1.346.348 3v30c0 1.654 1.439 3 3.207 3h17.637c1.769 0 3.207-1.346 3.207-3V3c0-1.654-1.438-3-3.207-3Zm0 34.8H3.555c-1.06 0-1.924-.807-1.924-1.8V3c0-.993.863-1.8 1.924-1.8h17.637c1.061 0 1.924.807 1.924 1.8v26.55H4.758c-.355 0-.642.269-.642.6 0 .331.287.6.642.6h18.358V33c0 .992-.863 1.8-1.924 1.8Zm-7.375-2.175c0 .331-.287.6-.642.6h-1.603c-.354 0-.641-.269-.641-.6 0-.331.287-.6.641-.6h1.603c.355 0 .642.269.642.6ZM7.482 23.7h9.784c1.097 0 1.951-.892 1.833-1.912l-.858-7.37c-.102-.877-.89-1.539-1.833-1.539h-.594v-1.11c0-1.775-1.543-3.219-3.44-3.219s-3.44 1.444-3.44 3.219v1.11H8.34c-.943 0-1.731.662-1.833 1.539l-.858 7.37c-.119 1.02.737 1.912 1.833 1.912Zm-.558-1.782.858-7.37a.548.548 0 0 1 .558-.469h.593v.936c0 .332.287.6.642.6.354 0 .641-.268.641-.6V11.77c0-1.113.968-2.019 2.158-2.019s2.157.905 2.157 2.019v1.11h-2.774c-.354 0-.641.269-.641.6 0 .332.287.6.641.6h2.774v.936c0 .332.287.6.642.6.354 0 .641-.268.641-.6v-.936h.594c.287 0 .527.202.558.468l.857 7.371c.037.31-.222.582-.558.582H7.482c-.334 0-.594-.27-.558-.582Z"/>
</symbol>
<symbol id="icon-phone-green" viewBox="0 0 25 36"><path fill="#E1F4F5" d="M21.192.6c1.417 0 2.566 1.075 2.566 2.4v30c0 1.325-1.149 2.4-2.566 2.4H3.555C2.14 35.4.99 34.325.99 33V3C.99 1.675 2.139.6 3.555.6h17.637Z"/><path fill="#CAEFF2" d="M16.408 13.479c.614 0 1.129.433 1.195 1.004l.858 7.37c.078.666-.48 1.247-1.195 1.247H7.482c-.716 0-1.273-.581-1.196-1.247l.858-7.37c.067-.571.581-1.004 1.196-1.004h8.068Z"/><path fill="#F4FEFF" d="M21.314.603c2.063.09 1.953 2.997-.112 2.997h-8.347c-4.782 0-8.659 3.627-8.659 8.1v23.7h-.64C2.137 35.4.99 34.326.99 33V3C.99 1.675 2.138.6 3.555.6 3.671.6 21.22.6 21.314.603Z"/><path fill="#CAEFF2" d="M23.758 30.15V33c0 1.325-1.149 2.4-2.566 2.4H3.555C2.14 35.4.99 34.325.99 33v-2.85h22.768Z"/><path fill="#E1F4F5" d="M4.196 30.15v2.859C4.196 34.964.99 35.063.99 33v-2.85h3.206ZM16.408 15.729c-3.885 0-7.06 2.736-7.47 6.26-.074.632-.644 1.111-1.324 1.111h-.132c-.716 0-1.273-.581-1.196-1.247l.858-7.37c.067-.571.581-1.004 1.196-1.004h8.068c.613 0 1.129.432 1.195 1.003.078.667-.48 1.247-1.195 1.247Z"/><path fill="#52C29D" d="M21.192 0H3.555C1.787 0 .348 1.346.348 3v30c0 1.654 1.439 3 3.207 3h17.637c1.769 0 3.207-1.346 3.207-3V3c0-1.654-1.438-3-3.207-3Zm0 34.8H3.555c-1.06 0-1.924-.807-1.924-1.8V3c0-.993.863-1.8 1.924-1.8h17.637c1.061 0 1.924.807 1.924 1.8v26.55H4.758c-.355 0-.642.269-.642.6 0 .331.287.6.642.6h18.358V33c0 .992-.863 1.8-1.924 1.8Zm-7.375-2.175c0 .331-.287.6-.642.6h-1.603c-.354 0-.641-.269-.641-.6 0-.331.287-.6.641-.6h1.603c.355 0 .642.269.642.6ZM7.482 23.7h9.784c1.097 0 1.951-.892 1.833-1.912l-.858-7.37c-.102-.877-.89-1.539-1.833-1.539h-.594v-1.11c0-1.775-1.543-3.219-3.44-3.219s-3.44 1.444-3.44 3.219v1.11H8.34c-.943 0-1.731.662-1.833 1.539l-.858 7.37c-.119 1.02.737 1.912 1.833 1.912Zm-.558-1.782.858-7.37a.548.548 0 0 1 .558-.469h.593v.936c0 .332.287.6.642.6.354 0 .641-.268.641-.6V11.77c0-1.113.968-2.019 2.158-2.019s2.157.905 2.157 2.019v1.11h-2.774c-.354 0-.641.269-.641.6 0 .332.287.6.641.6h2.774v.936c0 .332.287.6.642.6.354 0 .641-.268.641-.6v-.936h.594c.287 0 .527.202.558.468l.857 7.371c.037.31-.222.582-.558.582H7.482c-.334 0-.594-.27-.558-.582Z"/>
</symbol>
<symbol id="logo-icon" viewBox="0 0 33 32"><path fill="#3DB370" stroke="#3DB370" d="M24.101 16c0-.405.28-.76.677-.852a6.497 6.497 0 0 0 5.038-6.36c0-3.606-2.926-6.538-6.518-6.538-3.066 0-5.75 2.183-6.379 5.189L24.101 16Zm0 0c0 .405.279.76.676.852L24.1 16Zm-7.182 8.561c.629 3.006 3.313 5.189 6.378 5.189 3.593 0 6.519-2.932 6.519-6.537a6.497 6.497 0 0 0-5.038-6.36l-7.859 7.708Zm0 0a.874.874 0 0 0-1.71 0c-.629 3.006-3.313 5.189-6.379 5.189-3.592 0-6.518-2.932-6.518-6.537a6.497 6.497 0 0 1 5.038-6.36.874.874 0 0 0 0-1.705l9.57 9.413ZM15.21 7.44C14.58 4.433 11.896 2.25 8.83 2.25c-3.592 0-6.518 2.932-6.518 6.537a6.497 6.497 0 0 0 5.038 6.36L15.21 7.44Zm0 0a.874.874 0 0 0 1.71 0h-1.71ZM8.83 31.5c3.055 0 5.806-1.705 7.234-4.28 1.428 2.575 4.178 4.28 7.233 4.28 4.56 0 8.267-3.718 8.267-8.287A8.246 8.246 0 0 0 27.369 16a8.246 8.246 0 0 0 4.195-7.213C31.564 4.218 27.857.5 23.297.5c-3.055 0-5.805 1.705-7.233 4.28C14.636 2.205 11.885.5 8.83.5 4.27.5.564 4.218.564 8.787A8.246 8.246 0 0 0 4.758 16a8.246 8.246 0 0 0-4.194 7.213c0 4.569 3.706 8.287 8.266 8.287Z"/>
</symbol></svg>