<svg xmlns="http://www.w3.org/2000/svg" viewBox="0 0 30 30">

  <symbol id="facebook">
    <circle cx="15" cy="15" r="14" fill="#fff" stroke="#CCC" stroke-width="2"></circle>
    <path d="m18.006 15.75.333-2.172h-2.084V12.17c0-.594.291-1.173 1.225-1.173h.947v-1.85S17.567 9 16.745 9c-1.716 0-2.837 1.04-2.837 2.923v1.655H12v2.172h1.908V21h2.347v-5.25h1.75Z"></path>
  </symbol>

  <symbol id="google+">
    <circle cx="15" cy="15" r="14" fill="#fff" stroke="#CCC" stroke-width="2"></circle>
    <path d="M16.664 14.14c.058.303.099.606.099 1 0 3.429-2.3 5.86-5.763 5.86-3.315 0-6-2.685-6-6s2.685-6 6-6c1.62 0 2.971.59 4.02 1.572l-1.63 1.563c-.442-.426-1.22-.925-2.39-.925-2.046 0-3.716 1.694-3.716 3.79s1.67 3.79 3.716 3.79c2.374 0 3.266-1.71 3.405-2.587H11V14.14h5.664Zm5.794.202V12.6h-1.75v1.742h-1.741v1.75h1.741v1.741h1.75v-1.741H24.2v-1.75h-1.742Z"></path>
  </symbol>

  <symbol id="linkedin">
    <circle cx="15" cy="15" r="14" fill="#fff" stroke="#CCC" stroke-width="2"></circle>
    <path d="M11.686 21H9.198v-8.012h2.488V21Zm-1.245-9.105a1.453 1.453 0 0 1-1.019-2.473 1.44 1.44 0 0 1 2.46 1.019c0 .795-.646 1.454-1.441 1.454ZM20.998 21h-2.483v-3.9c0-.93-.019-2.122-1.294-2.122-1.293 0-1.491 1.01-1.491 2.055V21h-2.485v-8.012h2.386v1.093h.034c.333-.63 1.144-1.294 2.355-1.294 2.517 0 2.98 1.658 2.98 3.812V21h-.002Z"></path>
  </symbol>

  <symbol id="twitter">
    <circle cx="15" cy="15" r="14" fill="#fff" stroke="#CCC" stroke-width="2"></circle>
    <path d="M21.256 11.99c.01.132.01.263.01.394 0 4.003-3.047 8.616-8.616 8.616A8.557 8.557 0 0 1 8 19.64c.244.029.478.038.731.038a6.064 6.064 0 0 0 3.76-1.294 3.033 3.033 0 0 1-2.832-2.1c.188.029.375.047.572.047.272 0 .544-.037.797-.103A3.028 3.028 0 0 1 8.6 13.256v-.037a3.05 3.05 0 0 0 1.369.384 3.026 3.026 0 0 1-1.35-2.522c0-.562.15-1.078.412-1.528a8.608 8.608 0 0 0 6.244 3.169 3.416 3.416 0 0 1-.075-.694A3.027 3.027 0 0 1 18.228 9c.872 0 1.66.366 2.213.956a5.962 5.962 0 0 0 1.922-.731 3.02 3.02 0 0 1-1.332 1.669 6.07 6.07 0 0 0 1.744-.469 6.511 6.511 0 0 1-1.519 1.566Z"></path>
  </symbol>

</svg>